<svg width="64" height="78" fill="none" xmlns="http://www.w3.org/2000/svg"><path d="M3.07 68.8V9.93c0-1.913.677-3.547 2.03-4.9C6.453 3.677 8.087 3 10 3h34.02c2.147 0 3.943.723 5.39 2.17l10.22 10.15c1.493 1.587 2.24 3.407 2.24 5.46V68.8c0 1.913-.677 3.57-2.03 4.97-1.353 1.353-2.987 2.03-4.9 2.03H10c-1.913 0-3.547-.677-4.9-2.03-1.353-1.4-2.03-3.057-2.03-4.97Z" stroke="#3DA74E" stroke-width="4.2" stroke-linecap="round" stroke-linejoin="round"/><path d="M42.97 18.61V5.1H10c-1.307 0-2.45.467-3.43 1.4-.933.98-1.4 2.123-1.4 3.43V68.8c0 1.353.467 2.52 1.4 3.5.933.933 2.077 1.4 3.43 1.4h44.94c1.353 0 2.497-.467 3.43-1.4.933-.98 1.4-2.147 1.4-3.5V20.5c0-.047-4.9-.047-14.7 0-.56 0-1.05-.187-1.47-.56a2.1 2.1 0 0 1-.63-1.33Z" fill="#DEECDE"/><path d="M59.49 15.39 49.34 5.24C47.753 3.747 45.957 3 43.95 3H9.86c-1.867 0-3.477.677-4.83 2.03C3.677 6.43 3 8.087 3 10v58.94c0 1.913.677 3.547 2.03 4.9 1.353 1.353 2.963 2.03 4.83 2.03h45.01c1.913 0 3.547-.677 4.9-2.03 1.353-1.353 2.03-2.987 2.03-4.9V20.85c0-2.1-.77-3.92-2.31-5.46Z" fill="#DDECDE"/><path d="M3 68.94V10c0-1.913.677-3.57 2.03-4.97C6.383 3.677 7.993 3 9.86 3h34.09c2.007 0 3.803.747 5.39 2.24l10.15 10.15c1.54 1.54 2.31 3.36 2.31 5.46v48.09c0 1.913-.677 3.547-2.03 4.9-1.353 1.353-2.987 2.03-4.9 2.03H9.86c-1.867 0-3.477-.677-4.83-2.03C3.677 72.487 3 70.853 3 68.94Z" stroke="#3DA64E" stroke-width="4.2" stroke-linecap="round" stroke-linejoin="round"/><path d="M3.07 68.8V9.93c0-1.913.677-3.547 2.03-4.9C6.453 3.677 8.087 3 10 3h34.02c2.147 0 3.943.723 5.39 2.17l10.22 10.15c1.493 1.587 2.24 3.407 2.24 5.46V68.8c0 1.913-.677 3.57-2.03 4.97-1.353 1.353-2.987 2.03-4.9 2.03H10c-1.913 0-3.547-.677-4.9-2.03-1.353-1.4-2.03-3.057-2.03-4.97Z" stroke="#3DA74E" stroke-width="4.2" stroke-linecap="round" stroke-linejoin="round"/><path d="M42.97 18.61V5.1H10c-1.307 0-2.45.467-3.43 1.4-.933.98-1.4 2.123-1.4 3.43V68.8c0 1.353.467 2.52 1.4 3.5.933.933 2.077 1.4 3.43 1.4h44.94c1.353 0 2.497-.467 3.43-1.4.933-.98 1.4-2.147 1.4-3.5V20.5c0-.047-4.9-.047-14.7 0-.56 0-1.05-.187-1.47-.56a2.1 2.1 0 0 1-.63-1.33Z" fill="#DEECDE"/><path d="M59.49 15.39 49.34 5.24C47.753 3.747 45.957 3 43.95 3H9.86c-1.867 0-3.477.677-4.83 2.03C3.677 6.43 3 8.087 3 10v58.94c0 1.913.677 3.547 2.03 4.9 1.353 1.353 2.963 2.03 4.83 2.03h45.01c1.913 0 3.547-.677 4.9-2.03 1.353-1.353 2.03-2.987 2.03-4.9V20.85c0-2.1-.77-3.92-2.31-5.46Z" fill="#DDECDE"/><path d="M3 68.94V10c0-1.913.677-3.57 2.03-4.97C6.383 3.677 7.993 3 9.86 3h34.09c2.007 0 3.803.747 5.39 2.24l10.15 10.15c1.54 1.54 2.31 3.36 2.31 5.46v48.09c0 1.913-.677 3.547-2.03 4.9-1.353 1.353-2.987 2.03-4.9 2.03H9.86c-1.867 0-3.477-.677-4.83-2.03C3.677 72.487 3 70.853 3 68.94Z" stroke="#3DA64E" stroke-width="4.2" stroke-linecap="round" stroke-linejoin="round"/><path d="M3.07 68.8V9.93c0-1.913.677-3.547 2.03-4.9C6.453 3.677 8.087 3 10 3h34.02c2.147 0 3.943.723 5.39 2.17l10.22 10.15c1.493 1.587 2.24 3.407 2.24 5.46V68.8c0 1.913-.677 3.57-2.03 4.97-1.353 1.353-2.987 2.03-4.9 2.03H10c-1.913 0-3.547-.677-4.9-2.03-1.353-1.4-2.03-3.057-2.03-4.97Z" stroke="#3DA74E" stroke-width="4.2" stroke-linecap="round" stroke-linejoin="round"/><path d="M42.97 18.61V5.1H10c-1.307 0-2.45.467-3.43 1.4-.933.98-1.4 2.123-1.4 3.43V68.8c0 1.353.467 2.52 1.4 3.5.933.933 2.077 1.4 3.43 1.4h44.94c1.353 0 2.497-.467 3.43-1.4.933-.98 1.4-2.147 1.4-3.5V20.5c0-.047-4.9-.047-14.7 0-.56 0-1.05-.187-1.47-.56a2.1 2.1 0 0 1-.63-1.33Z" fill="#DEECDE"/><path d="M59.49 15.39 49.34 5.24C47.753 3.747 45.957 3 43.95 3H9.86c-1.867 0-3.477.677-4.83 2.03C3.677 6.43 3 8.087 3 10v58.94c0 1.913.677 3.547 2.03 4.9 1.353 1.353 2.963 2.03 4.83 2.03h45.01c1.913 0 3.547-.677 4.9-2.03 1.353-1.353 2.03-2.987 2.03-4.9V20.85c0-2.1-.77-3.92-2.31-5.46Z" fill="#DDECDE"/><path d="M3 68.94V10c0-1.913.677-3.57 2.03-4.97C6.383 3.677 7.993 3 9.86 3h34.09c2.007 0 3.803.747 5.39 2.24l10.15 10.15c1.54 1.54 2.31 3.36 2.31 5.46v48.09c0 1.913-.677 3.547-2.03 4.9-1.353 1.353-2.987 2.03-4.9 2.03H9.86c-1.867 0-3.477-.677-4.83-2.03C3.677 72.487 3 70.853 3 68.94Z" stroke="#3DA64E" stroke-width="4.2" stroke-linecap="round" stroke-linejoin="round"/><path d="M3.07 68.8V9.93c0-1.913.677-3.547 2.03-4.9C6.453 3.677 8.087 3 10 3h34.02c2.147 0 3.943.723 5.39 2.17l10.22 10.15c1.493 1.587 2.24 3.407 2.24 5.46V68.8c0 1.913-.677 3.57-2.03 4.97-1.353 1.353-2.987 2.03-4.9 2.03H10c-1.913 0-3.547-.677-4.9-2.03-1.353-1.4-2.03-3.057-2.03-4.97Z" stroke="#3DA74E" stroke-width="4.2" stroke-linecap="round" stroke-linejoin="round"/><path d="M42.97 18.61V5.1H10c-1.307 0-2.45.467-3.43 1.4-.933.98-1.4 2.123-1.4 3.43V68.8c0 1.353.467 2.52 1.4 3.5.933.933 2.077 1.4 3.43 1.4h44.94c1.353 0 2.497-.467 3.43-1.4.933-.98 1.4-2.147 1.4-3.5V20.5c0-.047-4.9-.047-14.7 0-.56 0-1.05-.187-1.47-.56a2.1 2.1 0 0 1-.63-1.33Z" fill="#DEECDE"/><path d="M59.49 15.39 49.34 5.24C47.753 3.747 45.957 3 43.95 3H9.86c-1.867 0-3.477.677-4.83 2.03C3.677 6.43 3 8.087 3 10v58.94c0 1.913.677 3.547 2.03 4.9 1.353 1.353 2.963 2.03 4.83 2.03h45.01c1.913 0 3.547-.677 4.9-2.03 1.353-1.353 2.03-2.987 2.03-4.9V20.85c0-2.1-.77-3.92-2.31-5.46Z" fill="#DDECDE"/><path d="M3 68.94V10c0-1.913.677-3.57 2.03-4.97C6.383 3.677 7.993 3 9.86 3h34.09c2.007 0 3.803.747 5.39 2.24l10.15 10.15c1.54 1.54 2.31 3.36 2.31 5.46v48.09c0 1.913-.677 3.547-2.03 4.9-1.353 1.353-2.987 2.03-4.9 2.03H9.86c-1.867 0-3.477-.677-4.83-2.03C3.677 72.487 3 70.853 3 68.94Z" stroke="#3DA64E" stroke-width="4.2" stroke-linecap="round" stroke-linejoin="round"/><path d="M3.07 68.8V9.93c0-1.913.677-3.547 2.03-4.9C6.453 3.677 8.087 3 10 3h34.02c2.147 0 3.943.723 5.39 2.17l10.22 10.15c1.493 1.587 2.24 3.407 2.24 5.46V68.8c0 1.913-.677 3.57-2.03 4.97-1.353 1.353-2.987 2.03-4.9 2.03H10c-1.913 0-3.547-.677-4.9-2.03-1.353-1.4-2.03-3.057-2.03-4.97Z" stroke="#3DA74E" stroke-width="4.2" stroke-linecap="round" stroke-linejoin="round"/><path d="M42.97 18.61V5.1H10c-1.307 0-2.45.467-3.43 1.4-.933.98-1.4 2.123-1.4 3.43V68.8c0 1.353.467 2.52 1.4 3.5.933.933 2.077 1.4 3.43 1.4h44.94c1.353 0 2.497-.467 3.43-1.4.933-.98 1.4-2.147 1.4-3.5V20.5c0-.047-4.9-.047-14.7 0-.56 0-1.05-.187-1.47-.56a2.1 2.1 0 0 1-.63-1.33Z" fill="#DEECDE"/><path d="M59.49 15.39 49.34 5.24C47.753 3.747 45.957 3 43.95 3H9.86c-1.867 0-3.477.677-4.83 2.03C3.677 6.43 3 8.087 3 10v58.94c0 1.913.677 3.547 2.03 4.9 1.353 1.353 2.963 2.03 4.83 2.03h45.01c1.913 0 3.547-.677 4.9-2.03 1.353-1.353 2.03-2.987 2.03-4.9V20.85c0-2.1-.77-3.92-2.31-5.46Z" fill="#DDECDE"/><path d="M3 68.94V10c0-1.913.677-3.57 2.03-4.97C6.383 3.677 7.993 3 9.86 3h34.09c2.007 0 3.803.747 5.39 2.24l10.15 10.15c1.54 1.54 2.31 3.36 2.31 5.46v48.09c0 1.913-.677 3.547-2.03 4.9-1.353 1.353-2.987 2.03-4.9 2.03H9.86c-1.867 0-3.477-.677-4.83-2.03C3.677 72.487 3 70.853 3 68.94Z" stroke="#3DA64E" stroke-width="4.2" stroke-linecap="round" stroke-linejoin="round"/><path d="M3.07 68.8V9.93c0-1.913.677-3.547 2.03-4.9C6.453 3.677 8.087 3 10 3h34.02c2.147 0 3.943.723 5.39 2.17l10.22 10.15c1.493 1.587 2.24 3.407 2.24 5.46V68.8c0 1.913-.677 3.57-2.03 4.97-1.353 1.353-2.987 2.03-4.9 2.03H10c-1.913 0-3.547-.677-4.9-2.03-1.353-1.4-2.03-3.057-2.03-4.97Z" stroke="#3DA74E" stroke-width="4.2" stroke-linecap="round" stroke-linejoin="round"/><path d="M42.97 18.61V5.1H10c-1.307 0-2.45.467-3.43 1.4-.933.98-1.4 2.123-1.4 3.43V68.8c0 1.353.467 2.52 1.4 3.5.933.933 2.077 1.4 3.43 1.4h44.94c1.353 0 2.497-.467 3.43-1.4.933-.98 1.4-2.147 1.4-3.5V20.5c0-.047-4.9-.047-14.7 0-.56 0-1.05-.187-1.47-.56a2.1 2.1 0 0 1-.63-1.33Z" fill="#DEECDE"/><path d="M59.49 15.39 49.34 5.24C47.753 3.747 45.957 3 43.95 3H9.86c-1.867 0-3.477.677-4.83 2.03C3.677 6.43 3 8.087 3 10v58.94c0 1.913.677 3.547 2.03 4.9 1.353 1.353 2.963 2.03 4.83 2.03h45.01c1.913 0 3.547-.677 4.9-2.03 1.353-1.353 2.03-2.987 2.03-4.9V20.85c0-2.1-.77-3.92-2.31-5.46Z" fill="#DDECDE"/><path d="M3 68.94V10c0-1.913.677-3.57 2.03-4.97C6.383 3.677 7.993 3 9.86 3h34.09c2.007 0 3.803.747 5.39 2.24l10.15 10.15c1.54 1.54 2.31 3.36 2.31 5.46v48.09c0 1.913-.677 3.547-2.03 4.9-1.353 1.353-2.987 2.03-4.9 2.03H9.86c-1.867 0-3.477-.677-4.83-2.03C3.677 72.487 3 70.853 3 68.94Z" stroke="#3DA64E" stroke-width="4.2" stroke-linecap="round" stroke-linejoin="round"/><path d="M3.07 68.8V9.93c0-1.913.677-3.547 2.03-4.9C6.453 3.677 8.087 3 10 3h34.02c2.147 0 3.943.723 5.39 2.17l10.22 10.15c1.493 1.587 2.24 3.407 2.24 5.46V68.8c0 1.913-.677 3.57-2.03 4.97-1.353 1.353-2.987 2.03-4.9 2.03H10c-1.913 0-3.547-.677-4.9-2.03-1.353-1.4-2.03-3.057-2.03-4.97Z" stroke="#3DA74E" stroke-width="4.2" stroke-linecap="round" stroke-linejoin="round"/><path d="M42.97 18.61V5.1H10c-1.307 0-2.45.467-3.43 1.4-.933.98-1.4 2.123-1.4 3.43V68.8c0 1.353.467 2.52 1.4 3.5.933.933 2.077 1.4 3.43 1.4h44.94c1.353 0 2.497-.467 3.43-1.4.933-.98 1.4-2.147 1.4-3.5V20.5c0-.047-4.9-.047-14.7 0-.56 0-1.05-.187-1.47-.56a2.1 2.1 0 0 1-.63-1.33Z" fill="#DEECDE"/><path d="M59.49 15.39 49.34 5.24C47.753 3.747 45.957 3 43.95 3H9.86c-1.867 0-3.477.677-4.83 2.03C3.677 6.43 3 8.087 3 10v58.94c0 1.913.677 3.547 2.03 4.9 1.353 1.353 2.963 2.03 4.83 2.03h45.01c1.913 0 3.547-.677 4.9-2.03 1.353-1.353 2.03-2.987 2.03-4.9V20.85c0-2.1-.77-3.92-2.31-5.46Z" fill="#DDECDE"/><path d="M3 68.94V10c0-1.913.677-3.57 2.03-4.97C6.383 3.677 7.993 3 9.86 3h34.09c2.007 0 3.803.747 5.39 2.24l10.15 10.15c1.54 1.54 2.31 3.36 2.31 5.46v48.09c0 1.913-.677 3.547-2.03 4.9-1.353 1.353-2.987 2.03-4.9 2.03H9.86c-1.867 0-3.477-.677-4.83-2.03C3.677 72.487 3 70.853 3 68.94Z" stroke="#3DA64E" stroke-width="4.2" stroke-linecap="round" stroke-linejoin="round"/><path d="M3.07 68.8V9.93c0-1.913.677-3.547 2.03-4.9C6.453 3.677 8.087 3 10 3h34.02c2.147 0 3.943.723 5.39 2.17l10.22 10.15c1.493 1.587 2.24 3.407 2.24 5.46V68.8c0 1.913-.677 3.57-2.03 4.97-1.353 1.353-2.987 2.03-4.9 2.03H10c-1.913 0-3.547-.677-4.9-2.03-1.353-1.4-2.03-3.057-2.03-4.97Z" stroke="#3DA74E" stroke-width="4.2" stroke-linecap="round" stroke-linejoin="round"/><path d="M42.97 18.61V5.1H10c-1.307 0-2.45.467-3.43 1.4-.933.98-1.4 2.123-1.4 3.43V68.8c0 1.353.467 2.52 1.4 3.5.933.933 2.077 1.4 3.43 1.4h44.94c1.353 0 2.497-.467 3.43-1.4.933-.98 1.4-2.147 1.4-3.5V20.5c0-.047-4.9-.047-14.7 0-.56 0-1.05-.187-1.47-.56a2.1 2.1 0 0 1-.63-1.33Z" fill="#DEECDE"/><path d="M59.49 15.39 49.34 5.24C47.753 3.747 45.957 3 43.95 3H9.86c-1.867 0-3.477.677-4.83 2.03C3.677 6.43 3 8.087 3 10v58.94c0 1.913.677 3.547 2.03 4.9 1.353 1.353 2.963 2.03 4.83 2.03h45.01c1.913 0 3.547-.677 4.9-2.03 1.353-1.353 2.03-2.987 2.03-4.9V20.85c0-2.1-.77-3.92-2.31-5.46Z" fill="#DDECDE"/><path d="M3 68.94V10c0-1.913.677-3.57 2.03-4.97C6.383 3.677 7.993 3 9.86 3h34.09c2.007 0 3.803.747 5.39 2.24l10.15 10.15c1.54 1.54 2.31 3.36 2.31 5.46v48.09c0 1.913-.677 3.547-2.03 4.9-1.353 1.353-2.987 2.03-4.9 2.03H9.86c-1.867 0-3.477-.677-4.83-2.03C3.677 72.487 3 70.853 3 68.94Z" stroke="#3DA64E" stroke-width="4.2" stroke-linecap="round" stroke-linejoin="round"/><path d="M3.07 68.8V9.93c0-1.913.677-3.547 2.03-4.9C6.453 3.677 8.087 3 10 3h34.02c2.147 0 3.943.723 5.39 2.17l10.22 10.15c1.493 1.587 2.24 3.407 2.24 5.46V68.8c0 1.913-.677 3.57-2.03 4.97-1.353 1.353-2.987 2.03-4.9 2.03H10c-1.913 0-3.547-.677-4.9-2.03-1.353-1.4-2.03-3.057-2.03-4.97Z" stroke="#3DA74E" stroke-width="4.2" stroke-linecap="round" stroke-linejoin="round"/><path d="M42.97 18.61V5.1H10c-1.307 0-2.45.467-3.43 1.4-.933.98-1.4 2.123-1.4 3.43V68.8c0 1.353.467 2.52 1.4 3.5.933.933 2.077 1.4 3.43 1.4h44.94c1.353 0 2.497-.467 3.43-1.4.933-.98 1.4-2.147 1.4-3.5V20.5c0-.047-4.9-.047-14.7 0-.56 0-1.05-.187-1.47-.56a2.1 2.1 0 0 1-.63-1.33Z" fill="#DEECDE"/><path d="M59.49 15.39 49.34 5.24C47.753 3.747 45.957 3 43.95 3H9.86c-1.867 0-3.477.677-4.83 2.03C3.677 6.43 3 8.087 3 10v58.94c0 1.913.677 3.547 2.03 4.9 1.353 1.353 2.963 2.03 4.83 2.03h45.01c1.913 0 3.547-.677 4.9-2.03 1.353-1.353 2.03-2.987 2.03-4.9V20.85c0-2.1-.77-3.92-2.31-5.46Z" fill="#DDECDE"/><path d="M3 68.94V10c0-1.913.677-3.57 2.03-4.97C6.383 3.677 7.993 3 9.86 3h34.09c2.007 0 3.803.747 5.39 2.24l10.15 10.15c1.54 1.54 2.31 3.36 2.31 5.46v48.09c0 1.913-.677 3.547-2.03 4.9-1.353 1.353-2.987 2.03-4.9 2.03H9.86c-1.867 0-3.477-.677-4.83-2.03C3.677 72.487 3 70.853 3 68.94Z" stroke="#3DA64E" stroke-width="4.2" stroke-linecap="round" stroke-linejoin="round"/><path d="M3.07 68.8V9.93c0-1.913.677-3.547 2.03-4.9C6.453 3.677 8.087 3 10 3h34.02c2.147 0 3.943.723 5.39 2.17l10.22 10.15c1.493 1.587 2.24 3.407 2.24 5.46V68.8c0 1.913-.677 3.57-2.03 4.97-1.353 1.353-2.987 2.03-4.9 2.03H10c-1.913 0-3.547-.677-4.9-2.03-1.353-1.4-2.03-3.057-2.03-4.97Z" stroke="#3DA74E" stroke-width="4.2" stroke-linecap="round" stroke-linejoin="round"/><path d="M42.97 18.61V5.1H10c-1.307 0-2.45.467-3.43 1.4-.933.98-1.4 2.123-1.4 3.43V68.8c0 1.353.467 2.52 1.4 3.5.933.933 2.077 1.4 3.43 1.4h44.94c1.353 0 2.497-.467 3.43-1.4.933-.98 1.4-2.147 1.4-3.5V20.5c0-.047-4.9-.047-14.7 0-.56 0-1.05-.187-1.47-.56a2.1 2.1 0 0 1-.63-1.33Z" fill="#DEECDE"/><path d="M59.49 15.39 49.34 5.24C47.753 3.747 45.957 3 43.95 3H9.86c-1.867 0-3.477.677-4.83 2.03C3.677 6.43 3 8.087 3 10v58.94c0 1.913.677 3.547 2.03 4.9 1.353 1.353 2.963 2.03 4.83 2.03h45.01c1.913 0 3.547-.677 4.9-2.03 1.353-1.353 2.03-2.987 2.03-4.9V20.85c0-2.1-.77-3.92-2.31-5.46Z" fill="#DDECDE"/><path d="M3 68.94V10c0-1.913.677-3.57 2.03-4.97C6.383 3.677 7.993 3 9.86 3h34.09c2.007 0 3.803.747 5.39 2.24l10.15 10.15c1.54 1.54 2.31 3.36 2.31 5.46v48.09c0 1.913-.677 3.547-2.03 4.9-1.353 1.353-2.987 2.03-4.9 2.03H9.86c-1.867 0-3.477-.677-4.83-2.03C3.677 72.487 3 70.853 3 68.94Z" stroke="#3DA64E" stroke-width="4.2" stroke-linecap="round" stroke-linejoin="round"/><path d="M3.07 68.8V9.93c0-1.913.677-3.547 2.03-4.9C6.453 3.677 8.087 3 10 3h34.02c2.147 0 3.943.723 5.39 2.17l10.22 10.15c1.493 1.587 2.24 3.407 2.24 5.46V68.8c0 1.913-.677 3.57-2.03 4.97-1.353 1.353-2.987 2.03-4.9 2.03H10c-1.913 0-3.547-.677-4.9-2.03-1.353-1.4-2.03-3.057-2.03-4.97Z" stroke="#3DA74E" stroke-width="4.2" stroke-linecap="round" stroke-linejoin="round"/><path d="M42.97 18.61V5.1H10c-1.307 0-2.45.467-3.43 1.4-.933.98-1.4 2.123-1.4 3.43V68.8c0 1.353.467 2.52 1.4 3.5.933.933 2.077 1.4 3.43 1.4h44.94c1.353 0 2.497-.467 3.43-1.4.933-.98 1.4-2.147 1.4-3.5V20.5c0-.047-4.9-.047-14.7 0-.56 0-1.05-.187-1.47-.56a2.1 2.1 0 0 1-.63-1.33Z" fill="#DEECDE"/><path d="M59.49 15.39 49.34 5.24C47.753 3.747 45.957 3 43.95 3H9.86c-1.867 0-3.477.677-4.83 2.03C3.677 6.43 3 8.087 3 10v58.94c0 1.913.677 3.547 2.03 4.9 1.353 1.353 2.963 2.03 4.83 2.03h45.01c1.913 0 3.547-.677 4.9-2.03 1.353-1.353 2.03-2.987 2.03-4.9V20.85c0-2.1-.77-3.92-2.31-5.46Z" fill="#DDECDE"/><path d="M3 68.94V10c0-1.913.677-3.57 2.03-4.97C6.383 3.677 7.993 3 9.86 3h34.09c2.007 0 3.803.747 5.39 2.24l10.15 10.15c1.54 1.54 2.31 3.36 2.31 5.46v48.09c0 1.913-.677 3.547-2.03 4.9-1.353 1.353-2.987 2.03-4.9 2.03H9.86c-1.867 0-3.477-.677-4.83-2.03C3.677 72.487 3 70.853 3 68.94Z" stroke="#3DA64E" stroke-width="4.2" stroke-linecap="round" stroke-linejoin="round"/><path d="M3.07 68.8V9.93c0-1.913.677-3.547 2.03-4.9C6.453 3.677 8.087 3 10 3h34.02c2.147 0 3.943.723 5.39 2.17l10.22 10.15c1.493 1.587 2.24 3.407 2.24 5.46V68.8c0 1.913-.677 3.57-2.03 4.97-1.353 1.353-2.987 2.03-4.9 2.03H10c-1.913 0-3.547-.677-4.9-2.03-1.353-1.4-2.03-3.057-2.03-4.97Z" stroke="#3DA74E" stroke-width="4.2" stroke-linecap="round" stroke-linejoin="round"/><path d="M42.97 18.61V5.1H10c-1.307 0-2.45.467-3.43 1.4-.933.98-1.4 2.123-1.4 3.43V68.8c0 1.353.467 2.52 1.4 3.5.933.933 2.077 1.4 3.43 1.4h44.94c1.353 0 2.497-.467 3.43-1.4.933-.98 1.4-2.147 1.4-3.5V20.5c0-.047-4.9-.047-14.7 0-.56 0-1.05-.187-1.47-.56a2.1 2.1 0 0 1-.63-1.33Z" fill="#DEECDE"/><path d="M59.49 15.39 49.34 5.24C47.753 3.747 45.957 3 43.95 3H9.86c-1.867 0-3.477.677-4.83 2.03C3.677 6.43 3 8.087 3 10v58.94c0 1.913.677 3.547 2.03 4.9 1.353 1.353 2.963 2.03 4.83 2.03h45.01c1.913 0 3.547-.677 4.9-2.03 1.353-1.353 2.03-2.987 2.03-4.9V20.85c0-2.1-.77-3.92-2.31-5.46Z" fill="#DDECDE"/><path d="M3 68.94V10c0-1.913.677-3.57 2.03-4.97C6.383 3.677 7.993 3 9.86 3h34.09c2.007 0 3.803.747 5.39 2.24l10.15 10.15c1.54 1.54 2.31 3.36 2.31 5.46v48.09c0 1.913-.677 3.547-2.03 4.9-1.353 1.353-2.987 2.03-4.9 2.03H9.86c-1.867 0-3.477-.677-4.83-2.03C3.677 72.487 3 70.853 3 68.94Z" stroke="#3DA64E" stroke-width="4.2" stroke-linecap="round" stroke-linejoin="round"/><path d="M3.07 68.8V9.93c0-1.913.677-3.547 2.03-4.9C6.453 3.677 8.087 3 10 3h34.02c2.147 0 3.943.723 5.39 2.17l10.22 10.15c1.493 1.587 2.24 3.407 2.24 5.46V68.8c0 1.913-.677 3.57-2.03 4.97-1.353 1.353-2.987 2.03-4.9 2.03H10c-1.913 0-3.547-.677-4.9-2.03-1.353-1.4-2.03-3.057-2.03-4.97Z" stroke="#3DA74E" stroke-width="4.2" stroke-linecap="round" stroke-linejoin="round"/><path d="M42.97 18.61V5.1H10c-1.307 0-2.45.467-3.43 1.4-.933.98-1.4 2.123-1.4 3.43V68.8c0 1.353.467 2.52 1.4 3.5.933.933 2.077 1.4 3.43 1.4h44.94c1.353 0 2.497-.467 3.43-1.4.933-.98 1.4-2.147 1.4-3.5V20.5c0-.047-4.9-.047-14.7 0-.56 0-1.05-.187-1.47-.56a2.1 2.1 0 0 1-.63-1.33Z" fill="#DEECDE"/><path d="M59.49 15.39 49.34 5.24C47.753 3.747 45.957 3 43.95 3H9.86c-1.867 0-3.477.677-4.83 2.03C3.677 6.43 3 8.087 3 10v58.94c0 1.913.677 3.547 2.03 4.9 1.353 1.353 2.963 2.03 4.83 2.03h45.01c1.913 0 3.547-.677 4.9-2.03 1.353-1.353 2.03-2.987 2.03-4.9V20.85c0-2.1-.77-3.92-2.31-5.46Z" fill="#DDECDE"/><path d="M3 68.94V10c0-1.913.677-3.57 2.03-4.97C6.383 3.677 7.993 3 9.86 3h34.09c2.007 0 3.803.747 5.39 2.24l10.15 10.15c1.54 1.54 2.31 3.36 2.31 5.46v48.09c0 1.913-.677 3.547-2.03 4.9-1.353 1.353-2.987 2.03-4.9 2.03H9.86c-1.867 0-3.477-.677-4.83-2.03C3.677 72.487 3 70.853 3 68.94Z" stroke="#3DA64E" stroke-width="4.2" stroke-linecap="round" stroke-linejoin="round"/><path d="M3.07 68.8V9.93c0-1.913.677-3.547 2.03-4.9C6.453 3.677 8.087 3 10 3h34.02c2.147 0 3.943.723 5.39 2.17l10.22 10.15c1.493 1.587 2.24 3.407 2.24 5.46V68.8c0 1.913-.677 3.57-2.03 4.97-1.353 1.353-2.987 2.03-4.9 2.03H10c-1.913 0-3.547-.677-4.9-2.03-1.353-1.4-2.03-3.057-2.03-4.97Z" stroke="#3DA74E" stroke-width="4.2" stroke-linecap="round" stroke-linejoin="round"/><path d="M42.97 18.61V5.1H10c-1.307 0-2.45.467-3.43 1.4-.933.98-1.4 2.123-1.4 3.43V68.8c0 1.353.467 2.52 1.4 3.5.933.933 2.077 1.4 3.43 1.4h44.94c1.353 0 2.497-.467 3.43-1.4.933-.98 1.4-2.147 1.4-3.5V20.5c0-.047-4.9-.047-14.7 0-.56 0-1.05-.187-1.47-.56a2.1 2.1 0 0 1-.63-1.33Z" fill="#DEECDE"/><path d="M59.49 15.39 49.34 5.24C47.753 3.747 45.957 3 43.95 3H9.86c-1.867 0-3.477.677-4.83 2.03C3.677 6.43 3 8.087 3 10v58.94c0 1.913.677 3.547 2.03 4.9 1.353 1.353 2.963 2.03 4.83 2.03h45.01c1.913 0 3.547-.677 4.9-2.03 1.353-1.353 2.03-2.987 2.03-4.9V20.85c0-2.1-.77-3.92-2.31-5.46Z" fill="#DDECDE"/><path d="M3 68.94V10c0-1.913.677-3.57 2.03-4.97C6.383 3.677 7.993 3 9.86 3h34.09c2.007 0 3.803.747 5.39 2.24l10.15 10.15c1.54 1.54 2.31 3.36 2.31 5.46v48.09c0 1.913-.677 3.547-2.03 4.9-1.353 1.353-2.987 2.03-4.9 2.03H9.86c-1.867 0-3.477-.677-4.83-2.03C3.677 72.487 3 70.853 3 68.94Z" stroke="#3DA64E" stroke-width="4.2" stroke-linecap="round" stroke-linejoin="round"/><path d="M3.07 68.8V9.93c0-1.913.677-3.547 2.03-4.9C6.453 3.677 8.087 3 10 3h34.02c2.147 0 3.943.723 5.39 2.17l10.22 10.15c1.493 1.587 2.24 3.407 2.24 5.46V68.8c0 1.913-.677 3.57-2.03 4.97-1.353 1.353-2.987 2.03-4.9 2.03H10c-1.913 0-3.547-.677-4.9-2.03-1.353-1.4-2.03-3.057-2.03-4.97Z" stroke="#3DA74E" stroke-width="4.2" stroke-linecap="round" stroke-linejoin="round"/><path d="M42.97 18.61V5.1H10c-1.307 0-2.45.467-3.43 1.4-.933.98-1.4 2.123-1.4 3.43V68.8c0 1.353.467 2.52 1.4 3.5.933.933 2.077 1.4 3.43 1.4h44.94c1.353 0 2.497-.467 3.43-1.4.933-.98 1.4-2.147 1.4-3.5V20.5c0-.047-4.9-.047-14.7 0-.56 0-1.05-.187-1.47-.56a2.1 2.1 0 0 1-.63-1.33Z" fill="#DEECDE"/><path d="M59.49 15.39 49.34 5.24C47.753 3.747 45.957 3 43.95 3H9.86c-1.867 0-3.477.677-4.83 2.03C3.677 6.43 3 8.087 3 10v58.94c0 1.913.677 3.547 2.03 4.9 1.353 1.353 2.963 2.03 4.83 2.03h45.01c1.913 0 3.547-.677 4.9-2.03 1.353-1.353 2.03-2.987 2.03-4.9V20.85c0-2.1-.77-3.92-2.31-5.46Z" fill="#DDECDE"/><path d="M3 68.94V10c0-1.913.677-3.57 2.03-4.97C6.383 3.677 7.993 3 9.86 3h34.09c2.007 0 3.803.747 5.39 2.24l10.15 10.15c1.54 1.54 2.31 3.36 2.31 5.46v48.09c0 1.913-.677 3.547-2.03 4.9-1.353 1.353-2.987 2.03-4.9 2.03H9.86c-1.867 0-3.477-.677-4.83-2.03C3.677 72.487 3 70.853 3 68.94Z" stroke="#3DA64E" stroke-width="4.2" stroke-linecap="round" stroke-linejoin="round"/><path d="M3.07 68.8V9.93c0-1.913.677-3.547 2.03-4.9C6.453 3.677 8.087 3 10 3h34.02c2.147 0 3.943.723 5.39 2.17l10.22 10.15c1.493 1.587 2.24 3.407 2.24 5.46V68.8c0 1.913-.677 3.57-2.03 4.97-1.353 1.353-2.987 2.03-4.9 2.03H10c-1.913 0-3.547-.677-4.9-2.03-1.353-1.4-2.03-3.057-2.03-4.97Z" stroke="#3DA74E" stroke-width="4.2" stroke-linecap="round" stroke-linejoin="round"/><path d="M42.97 18.61V5.1H10c-1.307 0-2.45.467-3.43 1.4-.933.98-1.4 2.123-1.4 3.43V68.8c0 1.353.467 2.52 1.4 3.5.933.933 2.077 1.4 3.43 1.4h44.94c1.353 0 2.497-.467 3.43-1.4.933-.98 1.4-2.147 1.4-3.5V20.5c0-.047-4.9-.047-14.7 0-.56 0-1.05-.187-1.47-.56a2.1 2.1 0 0 1-.63-1.33Z" fill="#DEECDE"/><path d="M59.49 15.39 49.34 5.24C47.753 3.747 45.957 3 43.95 3H9.86c-1.867 0-3.477.677-4.83 2.03C3.677 6.43 3 8.087 3 10v58.94c0 1.913.677 3.547 2.03 4.9 1.353 1.353 2.963 2.03 4.83 2.03h45.01c1.913 0 3.547-.677 4.9-2.03 1.353-1.353 2.03-2.987 2.03-4.9V20.85c0-2.1-.77-3.92-2.31-5.46Z" fill="#DDECDE"/><path d="M3 68.94V10c0-1.913.677-3.57 2.03-4.97C6.383 3.677 7.993 3 9.86 3h34.09c2.007 0 3.803.747 5.39 2.24l10.15 10.15c1.54 1.54 2.31 3.36 2.31 5.46v48.09c0 1.913-.677 3.547-2.03 4.9-1.353 1.353-2.987 2.03-4.9 2.03H9.86c-1.867 0-3.477-.677-4.83-2.03C3.677 72.487 3 70.853 3 68.94Z" stroke="#3DA64E" stroke-width="4.2" stroke-linecap="round" stroke-linejoin="round"/><path d="M3.07 68.8V9.93c0-1.913.677-3.547 2.03-4.9C6.453 3.677 8.087 3 10 3h34.02c2.147 0 3.943.723 5.39 2.17l10.22 10.15c1.493 1.587 2.24 3.407 2.24 5.46V68.8c0 1.913-.677 3.57-2.03 4.97-1.353 1.353-2.987 2.03-4.9 2.03H10c-1.913 0-3.547-.677-4.9-2.03-1.353-1.4-2.03-3.057-2.03-4.97Z" stroke="#3DA74E" stroke-width="4.2" stroke-linecap="round" stroke-linejoin="round"/><path d="M42.97 18.61V5.1H10c-1.307 0-2.45.467-3.43 1.4-.933.98-1.4 2.123-1.4 3.43V68.8c0 1.353.467 2.52 1.4 3.5.933.933 2.077 1.4 3.43 1.4h44.94c1.353 0 2.497-.467 3.43-1.4.933-.98 1.4-2.147 1.4-3.5V20.5c0-.047-4.9-.047-14.7 0-.56 0-1.05-.187-1.47-.56a2.1 2.1 0 0 1-.63-1.33Z" fill="#DEECDE"/><path d="M59.49 15.39 49.34 5.24C47.753 3.747 45.957 3 43.95 3H9.86c-1.867 0-3.477.677-4.83 2.03C3.677 6.43 3 8.087 3 10v58.94c0 1.913.677 3.547 2.03 4.9 1.353 1.353 2.963 2.03 4.83 2.03h45.01c1.913 0 3.547-.677 4.9-2.03 1.353-1.353 2.03-2.987 2.03-4.9V20.85c0-2.1-.77-3.92-2.31-5.46Z" fill="#DDECDE"/><path d="M3 68.94V10c0-1.913.677-3.57 2.03-4.97C6.383 3.677 7.993 3 9.86 3h34.09c2.007 0 3.803.747 5.39 2.24l10.15 10.15c1.54 1.54 2.31 3.36 2.31 5.46v48.09c0 1.913-.677 3.547-2.03 4.9-1.353 1.353-2.987 2.03-4.9 2.03H9.86c-1.867 0-3.477-.677-4.83-2.03C3.677 72.487 3 70.853 3 68.94Z" stroke="#3DA64E" stroke-width="4.2" stroke-linecap="round" stroke-linejoin="round"/><path d="M3.07 68.8V9.93c0-1.913.677-3.547 2.03-4.9C6.453 3.677 8.087 3 10 3h34.02c2.147 0 3.943.723 5.39 2.17l10.22 10.15c1.493 1.587 2.24 3.407 2.24 5.46V68.8c0 1.913-.677 3.57-2.03 4.97-1.353 1.353-2.987 2.03-4.9 2.03H10c-1.913 0-3.547-.677-4.9-2.03-1.353-1.4-2.03-3.057-2.03-4.97Z" stroke="#3DA74E" stroke-width="4.2" stroke-linecap="round" stroke-linejoin="round"/><path d="M42.97 18.61V5.1H10c-1.307 0-2.45.467-3.43 1.4-.933.98-1.4 2.123-1.4 3.43V68.8c0 1.353.467 2.52 1.4 3.5.933.933 2.077 1.4 3.43 1.4h44.94c1.353 0 2.497-.467 3.43-1.4.933-.98 1.4-2.147 1.4-3.5V20.5c0-.047-4.9-.047-14.7 0-.56 0-1.05-.187-1.47-.56a2.1 2.1 0 0 1-.63-1.33Z" fill="#DEECDE"/><path d="M59.49 15.39 49.34 5.24C47.753 3.747 45.957 3 43.95 3H9.86c-1.867 0-3.477.677-4.83 2.03C3.677 6.43 3 8.087 3 10v58.94c0 1.913.677 3.547 2.03 4.9 1.353 1.353 2.963 2.03 4.83 2.03h45.01c1.913 0 3.547-.677 4.9-2.03 1.353-1.353 2.03-2.987 2.03-4.9V20.85c0-2.1-.77-3.92-2.31-5.46Z" fill="#DDECDE"/><path d="M3 68.94V10c0-1.913.677-3.57 2.03-4.97C6.383 3.677 7.993 3 9.86 3h34.09c2.007 0 3.803.747 5.39 2.24l10.15 10.15c1.54 1.54 2.31 3.36 2.31 5.46v48.09c0 1.913-.677 3.547-2.03 4.9-1.353 1.353-2.987 2.03-4.9 2.03H9.86c-1.867 0-3.477-.677-4.83-2.03C3.677 72.487 3 70.853 3 68.94Z" stroke="#3DA64E" stroke-width="4.2" stroke-linecap="round" stroke-linejoin="round"/><path d="M3.07 68.8V9.93c0-1.913.677-3.547 2.03-4.9C6.453 3.677 8.087 3 10 3h34.02c2.147 0 3.943.723 5.39 2.17l10.22 10.15c1.493 1.587 2.24 3.407 2.24 5.46V68.8c0 1.913-.677 3.57-2.03 4.97-1.353 1.353-2.987 2.03-4.9 2.03H10c-1.913 0-3.547-.677-4.9-2.03-1.353-1.4-2.03-3.057-2.03-4.97Z" stroke="#3DA74E" stroke-width="4.2" stroke-linecap="round" stroke-linejoin="round"/><path d="M42.97 18.61V5.1H10c-1.307 0-2.45.467-3.43 1.4-.933.98-1.4 2.123-1.4 3.43V68.8c0 1.353.467 2.52 1.4 3.5.933.933 2.077 1.4 3.43 1.4h44.94c1.353 0 2.497-.467 3.43-1.4.933-.98 1.4-2.147 1.4-3.5V20.5c0-.047-4.9-.047-14.7 0-.56 0-1.05-.187-1.47-.56a2.1 2.1 0 0 1-.63-1.33Z" fill="#DEECDE"/><path d="M59.49 15.39 49.34 5.24C47.753 3.747 45.957 3 43.95 3H9.86c-1.867 0-3.477.677-4.83 2.03C3.677 6.43 3 8.087 3 10v58.94c0 1.913.677 3.547 2.03 4.9 1.353 1.353 2.963 2.03 4.83 2.03h45.01c1.913 0 3.547-.677 4.9-2.03 1.353-1.353 2.03-2.987 2.03-4.9V20.85c0-2.1-.77-3.92-2.31-5.46Z" fill="#DDECDE"/><path d="M3 68.94V10c0-1.913.677-3.57 2.03-4.97C6.383 3.677 7.993 3 9.86 3h34.09c2.007 0 3.803.747 5.39 2.24l10.15 10.15c1.54 1.54 2.31 3.36 2.31 5.46v48.09c0 1.913-.677 3.547-2.03 4.9-1.353 1.353-2.987 2.03-4.9 2.03H9.86c-1.867 0-3.477-.677-4.83-2.03C3.677 72.487 3 70.853 3 68.94Z" stroke="#3DA64E" stroke-width="4.2" stroke-linecap="round" stroke-linejoin="round"/><path d="M3.07 68.8V9.93c0-1.913.677-3.547 2.03-4.9C6.453 3.677 8.087 3 10 3h34.02c2.147 0 3.943.723 5.39 2.17l10.22 10.15c1.493 1.587 2.24 3.407 2.24 5.46V68.8c0 1.913-.677 3.57-2.03 4.97-1.353 1.353-2.987 2.03-4.9 2.03H10c-1.913 0-3.547-.677-4.9-2.03-1.353-1.4-2.03-3.057-2.03-4.97Z" stroke="#3DA74E" stroke-width="4.2" stroke-linecap="round" stroke-linejoin="round"/><path d="M42.97 18.61V5.1H10c-1.307 0-2.45.467-3.43 1.4-.933.98-1.4 2.123-1.4 3.43V68.8c0 1.353.467 2.52 1.4 3.5.933.933 2.077 1.4 3.43 1.4h44.94c1.353 0 2.497-.467 3.43-1.4.933-.98 1.4-2.147 1.4-3.5V20.5c0-.047-4.9-.047-14.7 0-.56 0-1.05-.187-1.47-.56a2.1 2.1 0 0 1-.63-1.33Z" fill="#DEECDE"/><path d="M59.49 15.39 49.34 5.24C47.753 3.747 45.957 3 43.95 3H9.86c-1.867 0-3.477.677-4.83 2.03C3.677 6.43 3 8.087 3 10v58.94c0 1.913.677 3.547 2.03 4.9 1.353 1.353 2.963 2.03 4.83 2.03h45.01c1.913 0 3.547-.677 4.9-2.03 1.353-1.353 2.03-2.987 2.03-4.9V20.85c0-2.1-.77-3.92-2.31-5.46Z" fill="#DDECDE"/><path d="M3 68.94V10c0-1.913.677-3.57 2.03-4.97C6.383 3.677 7.993 3 9.86 3h34.09c2.007 0 3.803.747 5.39 2.24l10.15 10.15c1.54 1.54 2.31 3.36 2.31 5.46v48.09c0 1.913-.677 3.547-2.03 4.9-1.353 1.353-2.987 2.03-4.9 2.03H9.86c-1.867 0-3.477-.677-4.83-2.03C3.677 72.487 3 70.853 3 68.94Z" stroke="#3DA64E" stroke-width="4.2" stroke-linecap="round" stroke-linejoin="round"/><path d="M3.07 68.8V9.93c0-1.913.677-3.547 2.03-4.9C6.453 3.677 8.087 3 10 3h34.02c2.147 0 3.943.723 5.39 2.17l10.22 10.15c1.493 1.587 2.24 3.407 2.24 5.46V68.8c0 1.913-.677 3.57-2.03 4.97-1.353 1.353-2.987 2.03-4.9 2.03H10c-1.913 0-3.547-.677-4.9-2.03-1.353-1.4-2.03-3.057-2.03-4.97Z" stroke="#3DA74E" stroke-width="4.2" stroke-linecap="round" stroke-linejoin="round"/><path d="M42.97 18.61V5.1H10c-1.307 0-2.45.467-3.43 1.4-.933.98-1.4 2.123-1.4 3.43V68.8c0 1.353.467 2.52 1.4 3.5.933.933 2.077 1.4 3.43 1.4h44.94c1.353 0 2.497-.467 3.43-1.4.933-.98 1.4-2.147 1.4-3.5V20.5c0-.047-4.9-.047-14.7 0-.56 0-1.05-.187-1.47-.56a2.1 2.1 0 0 1-.63-1.33Z" fill="#DEECDE"/><path d="M59.49 15.39 49.34 5.24C47.753 3.747 45.957 3 43.95 3H9.86c-1.867 0-3.477.677-4.83 2.03C3.677 6.43 3 8.087 3 10v58.94c0 1.913.677 3.547 2.03 4.9 1.353 1.353 2.963 2.03 4.83 2.03h45.01c1.913 0 3.547-.677 4.9-2.03 1.353-1.353 2.03-2.987 2.03-4.9V20.85c0-2.1-.77-3.92-2.31-5.46Z" fill="#DDECDE"/><path d="M3 68.94V10c0-1.913.677-3.57 2.03-4.97C6.383 3.677 7.993 3 9.86 3h34.09c2.007 0 3.803.747 5.39 2.24l10.15 10.15c1.54 1.54 2.31 3.36 2.31 5.46v48.09c0 1.913-.677 3.547-2.03 4.9-1.353 1.353-2.987 2.03-4.9 2.03H9.86c-1.867 0-3.477-.677-4.83-2.03C3.677 72.487 3 70.853 3 68.94Z" stroke="#3DA64E" stroke-width="4.2" stroke-linecap="round" stroke-linejoin="round"/><path d="M3.07 68.8V9.93c0-1.913.677-3.547 2.03-4.9C6.453 3.677 8.087 3 10 3h34.02c2.147 0 3.943.723 5.39 2.17l10.22 10.15c1.493 1.587 2.24 3.407 2.24 5.46V68.8c0 1.913-.677 3.57-2.03 4.97-1.353 1.353-2.987 2.03-4.9 2.03H10c-1.913 0-3.547-.677-4.9-2.03-1.353-1.4-2.03-3.057-2.03-4.97Z" stroke="#3DA74E" stroke-width="4.2" stroke-linecap="round" stroke-linejoin="round"/><path d="M42.97 18.61V5.1H10c-1.307 0-2.45.467-3.43 1.4-.933.98-1.4 2.123-1.4 3.43V68.8c0 1.353.467 2.52 1.4 3.5.933.933 2.077 1.4 3.43 1.4h44.94c1.353 0 2.497-.467 3.43-1.4.933-.98 1.4-2.147 1.4-3.5V20.5c0-.047-4.9-.047-14.7 0-.56 0-1.05-.187-1.47-.56a2.1 2.1 0 0 1-.63-1.33Z" fill="#DEECDE"/><path d="M59.49 15.39 49.34 5.24C47.753 3.747 45.957 3 43.95 3H9.86c-1.867 0-3.477.677-4.83 2.03C3.677 6.43 3 8.087 3 10v58.94c0 1.913.677 3.547 2.03 4.9 1.353 1.353 2.963 2.03 4.83 2.03h45.01c1.913 0 3.547-.677 4.9-2.03 1.353-1.353 2.03-2.987 2.03-4.9V20.85c0-2.1-.77-3.92-2.31-5.46Z" fill="#DDECDE"/><path d="M3 68.94V10c0-1.913.677-3.57 2.03-4.97C6.383 3.677 7.993 3 9.86 3h34.09c2.007 0 3.803.747 5.39 2.24l10.15 10.15c1.54 1.54 2.31 3.36 2.31 5.46v48.09c0 1.913-.677 3.547-2.03 4.9-1.353 1.353-2.987 2.03-4.9 2.03H9.86c-1.867 0-3.477-.677-4.83-2.03C3.677 72.487 3 70.853 3 68.94Z" stroke="#3DA64E" stroke-width="4.2" stroke-linecap="round" stroke-linejoin="round"/><path d="M3.07 68.8V9.93c0-1.913.677-3.547 2.03-4.9C6.453 3.677 8.087 3 10 3h34.02c2.147 0 3.943.723 5.39 2.17l10.22 10.15c1.493 1.587 2.24 3.407 2.24 5.46V68.8c0 1.913-.677 3.57-2.03 4.97-1.353 1.353-2.987 2.03-4.9 2.03H10c-1.913 0-3.547-.677-4.9-2.03-1.353-1.4-2.03-3.057-2.03-4.97Z" stroke="#3DA74E" stroke-width="4.2" stroke-linecap="round" stroke-linejoin="round"/><path d="M42.97 18.61V5.1H10c-1.307 0-2.45.467-3.43 1.4-.933.98-1.4 2.123-1.4 3.43V68.8c0 1.353.467 2.52 1.4 3.5.933.933 2.077 1.4 3.43 1.4h44.94c1.353 0 2.497-.467 3.43-1.4.933-.98 1.4-2.147 1.4-3.5V20.5c0-.047-4.9-.047-14.7 0-.56 0-1.05-.187-1.47-.56a2.1 2.1 0 0 1-.63-1.33Z" fill="#DEECDE"/><path d="M59.49 15.39 49.34 5.24C47.753 3.747 45.957 3 43.95 3H9.86c-1.867 0-3.477.677-4.83 2.03C3.677 6.43 3 8.087 3 10v58.94c0 1.913.677 3.547 2.03 4.9 1.353 1.353 2.963 2.03 4.83 2.03h45.01c1.913 0 3.547-.677 4.9-2.03 1.353-1.353 2.03-2.987 2.03-4.9V20.85c0-2.1-.77-3.92-2.31-5.46Z" fill="#DDECDE"/><path d="M3 68.94V10c0-1.913.677-3.57 2.03-4.97C6.383 3.677 7.993 3 9.86 3h34.09c2.007 0 3.803.747 5.39 2.24l10.15 10.15c1.54 1.54 2.31 3.36 2.31 5.46v48.09c0 1.913-.677 3.547-2.03 4.9-1.353 1.353-2.987 2.03-4.9 2.03H9.86c-1.867 0-3.477-.677-4.83-2.03C3.677 72.487 3 70.853 3 68.94Z" stroke="#3DA64E" stroke-width="4.2" stroke-linecap="round" stroke-linejoin="round"/><path d="M3.07 68.8V9.93c0-1.913.677-3.547 2.03-4.9C6.453 3.677 8.087 3 10 3h34.02c2.147 0 3.943.723 5.39 2.17l10.22 10.15c1.493 1.587 2.24 3.407 2.24 5.46V68.8c0 1.913-.677 3.57-2.03 4.97-1.353 1.353-2.987 2.03-4.9 2.03H10c-1.913 0-3.547-.677-4.9-2.03-1.353-1.4-2.03-3.057-2.03-4.97Z" stroke="#3DA74E" stroke-width="4.2" stroke-linecap="round" stroke-linejoin="round"/><path d="M42.97 18.61V5.1H10c-1.307 0-2.45.467-3.43 1.4-.933.98-1.4 2.123-1.4 3.43V68.8c0 1.353.467 2.52 1.4 3.5.933.933 2.077 1.4 3.43 1.4h44.94c1.353 0 2.497-.467 3.43-1.4.933-.98 1.4-2.147 1.4-3.5V20.5c0-.047-4.9-.047-14.7 0-.56 0-1.05-.187-1.47-.56a2.1 2.1 0 0 1-.63-1.33Z" fill="#DEECDE"/><path d="M59.49 15.39 49.34 5.24C47.753 3.747 45.957 3 43.95 3H9.86c-1.867 0-3.477.677-4.83 2.03C3.677 6.43 3 8.087 3 10v58.94c0 1.913.677 3.547 2.03 4.9 1.353 1.353 2.963 2.03 4.83 2.03h45.01c1.913 0 3.547-.677 4.9-2.03 1.353-1.353 2.03-2.987 2.03-4.9V20.85c0-2.1-.77-3.92-2.31-5.46Z" fill="#DDECDE"/><path d="M3 68.94V10c0-1.913.677-3.57 2.03-4.97C6.383 3.677 7.993 3 9.86 3h34.09c2.007 0 3.803.747 5.39 2.24l10.15 10.15c1.54 1.54 2.31 3.36 2.31 5.46v48.09c0 1.913-.677 3.547-2.03 4.9-1.353 1.353-2.987 2.03-4.9 2.03H9.86c-1.867 0-3.477-.677-4.83-2.03C3.677 72.487 3 70.853 3 68.94Z" stroke="#3DA64E" stroke-width="4.2" stroke-linecap="round" stroke-linejoin="round"/><path d="M3.07 68.8V9.93c0-1.913.677-3.547 2.03-4.9C6.453 3.677 8.087 3 10 3h34.02c2.147 0 3.943.723 5.39 2.17l10.22 10.15c1.493 1.587 2.24 3.407 2.24 5.46V68.8c0 1.913-.677 3.57-2.03 4.97-1.353 1.353-2.987 2.03-4.9 2.03H10c-1.913 0-3.547-.677-4.9-2.03-1.353-1.4-2.03-3.057-2.03-4.97Z" stroke="#3DA74E" stroke-width="4.2" stroke-linecap="round" stroke-linejoin="round"/><path d="M42.97 18.61V5.1H10c-1.307 0-2.45.467-3.43 1.4-.933.98-1.4 2.123-1.4 3.43V68.8c0 1.353.467 2.52 1.4 3.5.933.933 2.077 1.4 3.43 1.4h44.94c1.353 0 2.497-.467 3.43-1.4.933-.98 1.4-2.147 1.4-3.5V20.5c0-.047-4.9-.047-14.7 0-.56 0-1.05-.187-1.47-.56a2.1 2.1 0 0 1-.63-1.33Z" fill="#DEECDE"/><path d="M59.49 15.39 49.34 5.24C47.753 3.747 45.957 3 43.95 3H9.86c-1.867 0-3.477.677-4.83 2.03C3.677 6.43 3 8.087 3 10v58.94c0 1.913.677 3.547 2.03 4.9 1.353 1.353 2.963 2.03 4.83 2.03h45.01c1.913 0 3.547-.677 4.9-2.03 1.353-1.353 2.03-2.987 2.03-4.9V20.85c0-2.1-.77-3.92-2.31-5.46Z" fill="#DDECDE"/><path d="M3 68.94V10c0-1.913.677-3.57 2.03-4.97C6.383 3.677 7.993 3 9.86 3h34.09c2.007 0 3.803.747 5.39 2.24l10.15 10.15c1.54 1.54 2.31 3.36 2.31 5.46v48.09c0 1.913-.677 3.547-2.03 4.9-1.353 1.353-2.987 2.03-4.9 2.03H9.86c-1.867 0-3.477-.677-4.83-2.03C3.677 72.487 3 70.853 3 68.94Z" stroke="#3DA64E" stroke-width="4.2" stroke-linecap="round" stroke-linejoin="round"/><path d="M3.07 68.8V9.93c0-1.913.677-3.547 2.03-4.9C6.453 3.677 8.087 3 10 3h34.02c2.147 0 3.943.723 5.39 2.17l10.22 10.15c1.493 1.587 2.24 3.407 2.24 5.46V68.8c0 1.913-.677 3.57-2.03 4.97-1.353 1.353-2.987 2.03-4.9 2.03H10c-1.913 0-3.547-.677-4.9-2.03-1.353-1.4-2.03-3.057-2.03-4.97Z" stroke="#3DA74E" stroke-width="4.2" stroke-linecap="round" stroke-linejoin="round"/><path d="M42.97 18.61V5.1H10c-1.307 0-2.45.467-3.43 1.4-.933.98-1.4 2.123-1.4 3.43V68.8c0 1.353.467 2.52 1.4 3.5.933.933 2.077 1.4 3.43 1.4h44.94c1.353 0 2.497-.467 3.43-1.4.933-.98 1.4-2.147 1.4-3.5V20.5c0-.047-4.9-.047-14.7 0-.56 0-1.05-.187-1.47-.56a2.1 2.1 0 0 1-.63-1.33Z" fill="#DEECDE"/><path d="M59.49 15.39 49.34 5.24C47.753 3.747 45.957 3 43.95 3H9.86c-1.867 0-3.477.677-4.83 2.03C3.677 6.43 3 8.087 3 10v58.94c0 1.913.677 3.547 2.03 4.9 1.353 1.353 2.963 2.03 4.83 2.03h45.01c1.913 0 3.547-.677 4.9-2.03 1.353-1.353 2.03-2.987 2.03-4.9V20.85c0-2.1-.77-3.92-2.31-5.46Z" fill="#DDECDE"/><path d="M3 68.94V10c0-1.913.677-3.57 2.03-4.97C6.383 3.677 7.993 3 9.86 3h34.09c2.007 0 3.803.747 5.39 2.24l10.15 10.15c1.54 1.54 2.31 3.36 2.31 5.46v48.09c0 1.913-.677 3.547-2.03 4.9-1.353 1.353-2.987 2.03-4.9 2.03H9.86c-1.867 0-3.477-.677-4.83-2.03C3.677 72.487 3 70.853 3 68.94Z" stroke="#3DA64E" stroke-width="4.2" stroke-linecap="round" stroke-linejoin="round"/><path d="M3.07 68.8V9.93c0-1.913.677-3.547 2.03-4.9C6.453 3.677 8.087 3 10 3h34.02c2.147 0 3.943.723 5.39 2.17l10.22 10.15c1.493 1.587 2.24 3.407 2.24 5.46V68.8c0 1.913-.677 3.57-2.03 4.97-1.353 1.353-2.987 2.03-4.9 2.03H10c-1.913 0-3.547-.677-4.9-2.03-1.353-1.4-2.03-3.057-2.03-4.97Z" stroke="#3DA74E" stroke-width="4.2" stroke-linecap="round" stroke-linejoin="round"/><path d="M42.97 18.61V5.1H10c-1.307 0-2.45.467-3.43 1.4-.933.98-1.4 2.123-1.4 3.43V68.8c0 1.353.467 2.52 1.4 3.5.933.933 2.077 1.4 3.43 1.4h44.94c1.353 0 2.497-.467 3.43-1.4.933-.98 1.4-2.147 1.4-3.5V20.5c0-.047-4.9-.047-14.7 0-.56 0-1.05-.187-1.47-.56a2.1 2.1 0 0 1-.63-1.33Z" fill="#DEECDE"/><path d="M59.49 15.39 49.34 5.24C47.753 3.747 45.957 3 43.95 3H9.86c-1.867 0-3.477.677-4.83 2.03C3.677 6.43 3 8.087 3 10v58.94c0 1.913.677 3.547 2.03 4.9 1.353 1.353 2.963 2.03 4.83 2.03h45.01c1.913 0 3.547-.677 4.9-2.03 1.353-1.353 2.03-2.987 2.03-4.9V20.85c0-2.1-.77-3.92-2.31-5.46Z" fill="#DDECDE"/><path d="M3 68.94V10c0-1.913.677-3.57 2.03-4.97C6.383 3.677 7.993 3 9.86 3h34.09c2.007 0 3.803.747 5.39 2.24l10.15 10.15c1.54 1.54 2.31 3.36 2.31 5.46v48.09c0 1.913-.677 3.547-2.03 4.9-1.353 1.353-2.987 2.03-4.9 2.03H9.86c-1.867 0-3.477-.677-4.83-2.03C3.677 72.487 3 70.853 3 68.94Z" stroke="#3DA64E" stroke-width="4.2" stroke-linecap="round" stroke-linejoin="round"/><path d="M3.07 68.8V9.93c0-1.913.677-3.547 2.03-4.9C6.453 3.677 8.087 3 10 3h34.02c2.147 0 3.943.723 5.39 2.17l10.22 10.15c1.493 1.587 2.24 3.407 2.24 5.46V68.8c0 1.913-.677 3.57-2.03 4.97-1.353 1.353-2.987 2.03-4.9 2.03H10c-1.913 0-3.547-.677-4.9-2.03-1.353-1.4-2.03-3.057-2.03-4.97Z" stroke="#3DA74E" stroke-width="4.2" stroke-linecap="round" stroke-linejoin="round"/><path d="M42.97 18.61V5.1H10c-1.307 0-2.45.467-3.43 1.4-.933.98-1.4 2.123-1.4 3.43V68.8c0 1.353.467 2.52 1.4 3.5.933.933 2.077 1.4 3.43 1.4h44.94c1.353 0 2.497-.467 3.43-1.4.933-.98 1.4-2.147 1.4-3.5V20.5c0-.047-4.9-.047-14.7 0-.56 0-1.05-.187-1.47-.56a2.1 2.1 0 0 1-.63-1.33Z" fill="#DEECDE"/><path d="M59.49 15.39 49.34 5.24C47.753 3.747 45.957 3 43.95 3H9.86c-1.867 0-3.477.677-4.83 2.03C3.677 6.43 3 8.087 3 10v58.94c0 1.913.677 3.547 2.03 4.9 1.353 1.353 2.963 2.03 4.83 2.03h45.01c1.913 0 3.547-.677 4.9-2.03 1.353-1.353 2.03-2.987 2.03-4.9V20.85c0-2.1-.77-3.92-2.31-5.46Z" fill="#DDECDE"/><path d="M3 68.94V10c0-1.913.677-3.57 2.03-4.97C6.383 3.677 7.993 3 9.86 3h34.09c2.007 0 3.803.747 5.39 2.24l10.15 10.15c1.54 1.54 2.31 3.36 2.31 5.46v48.09c0 1.913-.677 3.547-2.03 4.9-1.353 1.353-2.987 2.03-4.9 2.03H9.86c-1.867 0-3.477-.677-4.83-2.03C3.677 72.487 3 70.853 3 68.94Z" stroke="#3DA64E" stroke-width="4.2" stroke-linecap="round" stroke-linejoin="round"/><path d="M3.07 68.8V9.93c0-1.913.677-3.547 2.03-4.9C6.453 3.677 8.087 3 10 3h34.02c2.147 0 3.943.723 5.39 2.17l10.22 10.15c1.493 1.587 2.24 3.407 2.24 5.46V68.8c0 1.913-.677 3.57-2.03 4.97-1.353 1.353-2.987 2.03-4.9 2.03H10c-1.913 0-3.547-.677-4.9-2.03-1.353-1.4-2.03-3.057-2.03-4.97Z" stroke="#3DA74E" stroke-width="4.2" stroke-linecap="round" stroke-linejoin="round"/><path d="M42.97 18.61V5.1H10c-1.307 0-2.45.467-3.43 1.4-.933.98-1.4 2.123-1.4 3.43V68.8c0 1.353.467 2.52 1.4 3.5.933.933 2.077 1.4 3.43 1.4h44.94c1.353 0 2.497-.467 3.43-1.4.933-.98 1.4-2.147 1.4-3.5V20.5c0-.047-4.9-.047-14.7 0-.56 0-1.05-.187-1.47-.56a2.1 2.1 0 0 1-.63-1.33Z" fill="#DEECDE"/><path d="M59.49 15.39 49.34 5.24C47.753 3.747 45.957 3 43.95 3H9.86c-1.867 0-3.477.677-4.83 2.03C3.677 6.43 3 8.087 3 10v58.94c0 1.913.677 3.547 2.03 4.9 1.353 1.353 2.963 2.03 4.83 2.03h45.01c1.913 0 3.547-.677 4.9-2.03 1.353-1.353 2.03-2.987 2.03-4.9V20.85c0-2.1-.77-3.92-2.31-5.46Z" fill="#DDECDE"/><path d="M3 68.94V10c0-1.913.677-3.57 2.03-4.97C6.383 3.677 7.993 3 9.86 3h34.09c2.007 0 3.803.747 5.39 2.24l10.15 10.15c1.54 1.54 2.31 3.36 2.31 5.46v48.09c0 1.913-.677 3.547-2.03 4.9-1.353 1.353-2.987 2.03-4.9 2.03H9.86c-1.867 0-3.477-.677-4.83-2.03C3.677 72.487 3 70.853 3 68.94Z" stroke="#3DA64E" stroke-width="4.2" stroke-linecap="round" stroke-linejoin="round"/><path d="M3.07 68.8V9.93c0-1.913.677-3.547 2.03-4.9C6.453 3.677 8.087 3 10 3h34.02c2.147 0 3.943.723 5.39 2.17l10.22 10.15c1.493 1.587 2.24 3.407 2.24 5.46V68.8c0 1.913-.677 3.57-2.03 4.97-1.353 1.353-2.987 2.03-4.9 2.03H10c-1.913 0-3.547-.677-4.9-2.03-1.353-1.4-2.03-3.057-2.03-4.97Z" stroke="#3DA74E" stroke-width="4.2" stroke-linecap="round" stroke-linejoin="round"/><path d="M42.97 18.61V5.1H10c-1.307 0-2.45.467-3.43 1.4-.933.98-1.4 2.123-1.4 3.43V68.8c0 1.353.467 2.52 1.4 3.5.933.933 2.077 1.4 3.43 1.4h44.94c1.353 0 2.497-.467 3.43-1.4.933-.98 1.4-2.147 1.4-3.5V20.5c0-.047-4.9-.047-14.7 0-.56 0-1.05-.187-1.47-.56a2.1 2.1 0 0 1-.63-1.33Z" fill="#DEECDE"/><path d="M59.49 15.39 49.34 5.24C47.753 3.747 45.957 3 43.95 3H9.86c-1.867 0-3.477.677-4.83 2.03C3.677 6.43 3 8.087 3 10v58.94c0 1.913.677 3.547 2.03 4.9 1.353 1.353 2.963 2.03 4.83 2.03h45.01c1.913 0 3.547-.677 4.9-2.03 1.353-1.353 2.03-2.987 2.03-4.9V20.85c0-2.1-.77-3.92-2.31-5.46Z" fill="#DDECDE"/><path d="M3 68.94V10c0-1.913.677-3.57 2.03-4.97C6.383 3.677 7.993 3 9.86 3h34.09c2.007 0 3.803.747 5.39 2.24l10.15 10.15c1.54 1.54 2.31 3.36 2.31 5.46v48.09c0 1.913-.677 3.547-2.03 4.9-1.353 1.353-2.987 2.03-4.9 2.03H9.86c-1.867 0-3.477-.677-4.83-2.03C3.677 72.487 3 70.853 3 68.94Z" stroke="#3DA64E" stroke-width="4.2" stroke-linecap="round" stroke-linejoin="round"/><path d="M3.07 68.8V9.93c0-1.913.677-3.547 2.03-4.9C6.453 3.677 8.087 3 10 3h34.02c2.147 0 3.943.723 5.39 2.17l10.22 10.15c1.493 1.587 2.24 3.407 2.24 5.46V68.8c0 1.913-.677 3.57-2.03 4.97-1.353 1.353-2.987 2.03-4.9 2.03H10c-1.913 0-3.547-.677-4.9-2.03-1.353-1.4-2.03-3.057-2.03-4.97Z" stroke="#3DA74E" stroke-width="4.2" stroke-linecap="round" stroke-linejoin="round"/><path d="M42.97 18.61V5.1H10c-1.307 0-2.45.467-3.43 1.4-.933.98-1.4 2.123-1.4 3.43V68.8c0 1.353.467 2.52 1.4 3.5.933.933 2.077 1.4 3.43 1.4h44.94c1.353 0 2.497-.467 3.43-1.4.933-.98 1.4-2.147 1.4-3.5V20.5c0-.047-4.9-.047-14.7 0-.56 0-1.05-.187-1.47-.56a2.1 2.1 0 0 1-.63-1.33Z" fill="#DEECDE"/><path d="M59.49 15.39 49.34 5.24C47.753 3.747 45.957 3 43.95 3H9.86c-1.867 0-3.477.677-4.83 2.03C3.677 6.43 3 8.087 3 10v58.94c0 1.913.677 3.547 2.03 4.9 1.353 1.353 2.963 2.03 4.83 2.03h45.01c1.913 0 3.547-.677 4.9-2.03 1.353-1.353 2.03-2.987 2.03-4.9V20.85c0-2.1-.77-3.92-2.31-5.46Z" fill="#DDECDE"/><path d="M3 68.94V10c0-1.913.677-3.57 2.03-4.97C6.383 3.677 7.993 3 9.86 3h34.09c2.007 0 3.803.747 5.39 2.24l10.15 10.15c1.54 1.54 2.31 3.36 2.31 5.46v48.09c0 1.913-.677 3.547-2.03 4.9-1.353 1.353-2.987 2.03-4.9 2.03H9.86c-1.867 0-3.477-.677-4.83-2.03C3.677 72.487 3 70.853 3 68.94Z" stroke="#3DA64E" stroke-width="4.2" stroke-linecap="round" stroke-linejoin="round"/><path d="M3.07 68.8V9.93c0-1.913.677-3.547 2.03-4.9C6.453 3.677 8.087 3 10 3h34.02c2.147 0 3.943.723 5.39 2.17l10.22 10.15c1.493 1.587 2.24 3.407 2.24 5.46V68.8c0 1.913-.677 3.57-2.03 4.97-1.353 1.353-2.987 2.03-4.9 2.03H10c-1.913 0-3.547-.677-4.9-2.03-1.353-1.4-2.03-3.057-2.03-4.97Z" stroke="#3DA74E" stroke-width="4.2" stroke-linecap="round" stroke-linejoin="round"/><path d="M42.97 18.61V5.1H10c-1.307 0-2.45.467-3.43 1.4-.933.98-1.4 2.123-1.4 3.43V68.8c0 1.353.467 2.52 1.4 3.5.933.933 2.077 1.4 3.43 1.4h44.94c1.353 0 2.497-.467 3.43-1.4.933-.98 1.4-2.147 1.4-3.5V20.5c0-.047-4.9-.047-14.7 0-.56 0-1.05-.187-1.47-.56a2.1 2.1 0 0 1-.63-1.33Z" fill="#DEECDE"/><path d="M59.49 15.39 49.34 5.24C47.753 3.747 45.957 3 43.95 3H9.86c-1.867 0-3.477.677-4.83 2.03C3.677 6.43 3 8.087 3 10v58.94c0 1.913.677 3.547 2.03 4.9 1.353 1.353 2.963 2.03 4.83 2.03h45.01c1.913 0 3.547-.677 4.9-2.03 1.353-1.353 2.03-2.987 2.03-4.9V20.85c0-2.1-.77-3.92-2.31-5.46Z" fill="#DDECDE"/><path d="M3 68.94V10c0-1.913.677-3.57 2.03-4.97C6.383 3.677 7.993 3 9.86 3h34.09c2.007 0 3.803.747 5.39 2.24l10.15 10.15c1.54 1.54 2.31 3.36 2.31 5.46v48.09c0 1.913-.677 3.547-2.03 4.9-1.353 1.353-2.987 2.03-4.9 2.03H9.86c-1.867 0-3.477-.677-4.83-2.03C3.677 72.487 3 70.853 3 68.94Z" stroke="#3DA64E" stroke-width="4.2" stroke-linecap="round" stroke-linejoin="round"/><path d="M3.07 68.8V9.93c0-1.913.677-3.547 2.03-4.9C6.453 3.677 8.087 3 10 3h34.02c2.147 0 3.943.723 5.39 2.17l10.22 10.15c1.493 1.587 2.24 3.407 2.24 5.46V68.8c0 1.913-.677 3.57-2.03 4.97-1.353 1.353-2.987 2.03-4.9 2.03H10c-1.913 0-3.547-.677-4.9-2.03-1.353-1.4-2.03-3.057-2.03-4.97Z" stroke="#3DA74E" stroke-width="4.2" stroke-linecap="round" stroke-linejoin="round"/><path d="M42.97 18.61V5.1H10c-1.307 0-2.45.467-3.43 1.4-.933.98-1.4 2.123-1.4 3.43V68.8c0 1.353.467 2.52 1.4 3.5.933.933 2.077 1.4 3.43 1.4h44.94c1.353 0 2.497-.467 3.43-1.4.933-.98 1.4-2.147 1.4-3.5V20.5c0-.047-4.9-.047-14.7 0-.56 0-1.05-.187-1.47-.56a2.1 2.1 0 0 1-.63-1.33Z" fill="#DEECDE"/><path d="M59.49 15.39 49.34 5.24C47.753 3.747 45.957 3 43.95 3H9.86c-1.867 0-3.477.677-4.83 2.03C3.677 6.43 3 8.087 3 10v58.94c0 1.913.677 3.547 2.03 4.9 1.353 1.353 2.963 2.03 4.83 2.03h45.01c1.913 0 3.547-.677 4.9-2.03 1.353-1.353 2.03-2.987 2.03-4.9V20.85c0-2.1-.77-3.92-2.31-5.46Z" fill="#DDECDE"/><path d="M3 68.94V10c0-1.913.677-3.57 2.03-4.97C6.383 3.677 7.993 3 9.86 3h34.09c2.007 0 3.803.747 5.39 2.24l10.15 10.15c1.54 1.54 2.31 3.36 2.31 5.46v48.09c0 1.913-.677 3.547-2.03 4.9-1.353 1.353-2.987 2.03-4.9 2.03H9.86c-1.867 0-3.477-.677-4.83-2.03C3.677 72.487 3 70.853 3 68.94Z" stroke="#3DA64E" stroke-width="4.2" stroke-linecap="round" stroke-linejoin="round"/><path d="M3.07 68.8V9.93c0-1.913.677-3.547 2.03-4.9C6.453 3.677 8.087 3 10 3h34.02c2.147 0 3.943.723 5.39 2.17l10.22 10.15c1.493 1.587 2.24 3.407 2.24 5.46V68.8c0 1.913-.677 3.57-2.03 4.97-1.353 1.353-2.987 2.03-4.9 2.03H10c-1.913 0-3.547-.677-4.9-2.03-1.353-1.4-2.03-3.057-2.03-4.97Z" stroke="#3DA74E" stroke-width="4.2" stroke-linecap="round" stroke-linejoin="round"/><path d="M42.97 18.61V5.1H10c-1.307 0-2.45.467-3.43 1.4-.933.98-1.4 2.123-1.4 3.43V68.8c0 1.353.467 2.52 1.4 3.5.933.933 2.077 1.4 3.43 1.4h44.94c1.353 0 2.497-.467 3.43-1.4.933-.98 1.4-2.147 1.4-3.5V20.5c0-.047-4.9-.047-14.7 0-.56 0-1.05-.187-1.47-.56a2.1 2.1 0 0 1-.63-1.33Z" fill="#DEECDE"/><path d="M59.49 15.39 49.34 5.24C47.753 3.747 45.957 3 43.95 3H9.86c-1.867 0-3.477.677-4.83 2.03C3.677 6.43 3 8.087 3 10v58.94c0 1.913.677 3.547 2.03 4.9 1.353 1.353 2.963 2.03 4.83 2.03h45.01c1.913 0 3.547-.677 4.9-2.03 1.353-1.353 2.03-2.987 2.03-4.9V20.85c0-2.1-.77-3.92-2.31-5.46Z" fill="#DDECDE"/><path d="M3 68.94V10c0-1.913.677-3.57 2.03-4.97C6.383 3.677 7.993 3 9.86 3h34.09c2.007 0 3.803.747 5.39 2.24l10.15 10.15c1.54 1.54 2.31 3.36 2.31 5.46v48.09c0 1.913-.677 3.547-2.03 4.9-1.353 1.353-2.987 2.03-4.9 2.03H9.86c-1.867 0-3.477-.677-4.83-2.03C3.677 72.487 3 70.853 3 68.94Z" stroke="#3DA64E" stroke-width="4.2" stroke-linecap="round" stroke-linejoin="round"/><path d="M3.07 68.8V9.93c0-1.913.677-3.547 2.03-4.9C6.453 3.677 8.087 3 10 3h34.02c2.147 0 3.943.723 5.39 2.17l10.22 10.15c1.493 1.587 2.24 3.407 2.24 5.46V68.8c0 1.913-.677 3.57-2.03 4.97-1.353 1.353-2.987 2.03-4.9 2.03H10c-1.913 0-3.547-.677-4.9-2.03-1.353-1.4-2.03-3.057-2.03-4.97Z" stroke="#3DA74E" stroke-width="4.2" stroke-linecap="round" stroke-linejoin="round"/><path d="M42.97 18.61V5.1H10c-1.307 0-2.45.467-3.43 1.4-.933.98-1.4 2.123-1.4 3.43V68.8c0 1.353.467 2.52 1.4 3.5.933.933 2.077 1.4 3.43 1.4h44.94c1.353 0 2.497-.467 3.43-1.4.933-.98 1.4-2.147 1.4-3.5V20.5c0-.047-4.9-.047-14.7 0-.56 0-1.05-.187-1.47-.56a2.1 2.1 0 0 1-.63-1.33Z" fill="#DEECDE"/><path d="M59.49 15.39 49.34 5.24C47.753 3.747 45.957 3 43.95 3H9.86c-1.867 0-3.477.677-4.83 2.03C3.677 6.43 3 8.087 3 10v58.94c0 1.913.677 3.547 2.03 4.9 1.353 1.353 2.963 2.03 4.83 2.03h45.01c1.913 0 3.547-.677 4.9-2.03 1.353-1.353 2.03-2.987 2.03-4.9V20.85c0-2.1-.77-3.92-2.31-5.46Z" fill="#DDECDE"/><path d="M3 68.94V10c0-1.913.677-3.57 2.03-4.97C6.383 3.677 7.993 3 9.86 3h34.09c2.007 0 3.803.747 5.39 2.24l10.15 10.15c1.54 1.54 2.31 3.36 2.31 5.46v48.09c0 1.913-.677 3.547-2.03 4.9-1.353 1.353-2.987 2.03-4.9 2.03H9.86c-1.867 0-3.477-.677-4.83-2.03C3.677 72.487 3 70.853 3 68.94Z" stroke="#3DA64E" stroke-width="4.2" stroke-linecap="round" stroke-linejoin="round"/><path d="M3.07 68.8V9.93c0-1.913.677-3.547 2.03-4.9C6.453 3.677 8.087 3 10 3h34.02c2.147 0 3.943.723 5.39 2.17l10.22 10.15c1.493 1.587 2.24 3.407 2.24 5.46V68.8c0 1.913-.677 3.57-2.03 4.97-1.353 1.353-2.987 2.03-4.9 2.03H10c-1.913 0-3.547-.677-4.9-2.03-1.353-1.4-2.03-3.057-2.03-4.97Z" stroke="#3DA74E" stroke-width="4.2" stroke-linecap="round" stroke-linejoin="round"/><path d="M42.97 18.61V5.1H10c-1.307 0-2.45.467-3.43 1.4-.933.98-1.4 2.123-1.4 3.43V68.8c0 1.353.467 2.52 1.4 3.5.933.933 2.077 1.4 3.43 1.4h44.94c1.353 0 2.497-.467 3.43-1.4.933-.98 1.4-2.147 1.4-3.5V20.5c0-.047-4.9-.047-14.7 0-.56 0-1.05-.187-1.47-.56a2.1 2.1 0 0 1-.63-1.33Z" fill="#DEECDE"/><path d="M59.49 15.39 49.34 5.24C47.753 3.747 45.957 3 43.95 3H9.86c-1.867 0-3.477.677-4.83 2.03C3.677 6.43 3 8.087 3 10v58.94c0 1.913.677 3.547 2.03 4.9 1.353 1.353 2.963 2.03 4.83 2.03h45.01c1.913 0 3.547-.677 4.9-2.03 1.353-1.353 2.03-2.987 2.03-4.9V20.85c0-2.1-.77-3.92-2.31-5.46Z" fill="#DDECDE"/><path d="M3 68.94V10c0-1.913.677-3.57 2.03-4.97C6.383 3.677 7.993 3 9.86 3h34.09c2.007 0 3.803.747 5.39 2.24l10.15 10.15c1.54 1.54 2.31 3.36 2.31 5.46v48.09c0 1.913-.677 3.547-2.03 4.9-1.353 1.353-2.987 2.03-4.9 2.03H9.86c-1.867 0-3.477-.677-4.83-2.03C3.677 72.487 3 70.853 3 68.94Z" stroke="#3DA64E" stroke-width="4.2" stroke-linecap="round" stroke-linejoin="round"/><path d="M3.07 68.8V9.93c0-1.913.677-3.547 2.03-4.9C6.453 3.677 8.087 3 10 3h34.02c2.147 0 3.943.723 5.39 2.17l10.22 10.15c1.493 1.587 2.24 3.407 2.24 5.46V68.8c0 1.913-.677 3.57-2.03 4.97-1.353 1.353-2.987 2.03-4.9 2.03H10c-1.913 0-3.547-.677-4.9-2.03-1.353-1.4-2.03-3.057-2.03-4.97Z" stroke="#3DA74E" stroke-width="4.2" stroke-linecap="round" stroke-linejoin="round"/><path d="M42.97 18.61V5.1H10c-1.307 0-2.45.467-3.43 1.4-.933.98-1.4 2.123-1.4 3.43V68.8c0 1.353.467 2.52 1.4 3.5.933.933 2.077 1.4 3.43 1.4h44.94c1.353 0 2.497-.467 3.43-1.4.933-.98 1.4-2.147 1.4-3.5V20.5c0-.047-4.9-.047-14.7 0-.56 0-1.05-.187-1.47-.56a2.1 2.1 0 0 1-.63-1.33Z" fill="#DEECDE"/><path d="M59.49 15.39 49.34 5.24C47.753 3.747 45.957 3 43.95 3H9.86c-1.867 0-3.477.677-4.83 2.03C3.677 6.43 3 8.087 3 10v58.94c0 1.913.677 3.547 2.03 4.9 1.353 1.353 2.963 2.03 4.83 2.03h45.01c1.913 0 3.547-.677 4.9-2.03 1.353-1.353 2.03-2.987 2.03-4.9V20.85c0-2.1-.77-3.92-2.31-5.46Z" fill="#DDECDE"/><path d="M3 68.94V10c0-1.913.677-3.57 2.03-4.97C6.383 3.677 7.993 3 9.86 3h34.09c2.007 0 3.803.747 5.39 2.24l10.15 10.15c1.54 1.54 2.31 3.36 2.31 5.46v48.09c0 1.913-.677 3.547-2.03 4.9-1.353 1.353-2.987 2.03-4.9 2.03H9.86c-1.867 0-3.477-.677-4.83-2.03C3.677 72.487 3 70.853 3 68.94Z" stroke="#3DA64E" stroke-width="4.2" stroke-linecap="round" stroke-linejoin="round"/><path d="M3.07 68.8V9.93c0-1.913.677-3.547 2.03-4.9C6.453 3.677 8.087 3 10 3h34.02c2.147 0 3.943.723 5.39 2.17l10.22 10.15c1.493 1.587 2.24 3.407 2.24 5.46V68.8c0 1.913-.677 3.57-2.03 4.97-1.353 1.353-2.987 2.03-4.9 2.03H10c-1.913 0-3.547-.677-4.9-2.03-1.353-1.4-2.03-3.057-2.03-4.97Z" stroke="#3DA74E" stroke-width="4.2" stroke-linecap="round" stroke-linejoin="round"/><path d="M42.97 18.61V5.1H10c-1.307 0-2.45.467-3.43 1.4-.933.98-1.4 2.123-1.4 3.43V68.8c0 1.353.467 2.52 1.4 3.5.933.933 2.077 1.4 3.43 1.4h44.94c1.353 0 2.497-.467 3.43-1.4.933-.98 1.4-2.147 1.4-3.5V20.5c0-.047-4.9-.047-14.7 0-.56 0-1.05-.187-1.47-.56a2.1 2.1 0 0 1-.63-1.33Z" fill="#DEECDE"/><path d="M59.49 15.39 49.34 5.24C47.753 3.747 45.957 3 43.95 3H9.86c-1.867 0-3.477.677-4.83 2.03C3.677 6.43 3 8.087 3 10v58.94c0 1.913.677 3.547 2.03 4.9 1.353 1.353 2.963 2.03 4.83 2.03h45.01c1.913 0 3.547-.677 4.9-2.03 1.353-1.353 2.03-2.987 2.03-4.9V20.85c0-2.1-.77-3.92-2.31-5.46Z" fill="#DDECDE"/><path d="M3 68.94V10c0-1.913.677-3.57 2.03-4.97C6.383 3.677 7.993 3 9.86 3h34.09c2.007 0 3.803.747 5.39 2.24l10.15 10.15c1.54 1.54 2.31 3.36 2.31 5.46v48.09c0 1.913-.677 3.547-2.03 4.9-1.353 1.353-2.987 2.03-4.9 2.03H9.86c-1.867 0-3.477-.677-4.83-2.03C3.677 72.487 3 70.853 3 68.94Z" stroke="#3DA64E" stroke-width="4.2" stroke-linecap="round" stroke-linejoin="round"/><path d="M3.07 68.8V9.93c0-1.913.677-3.547 2.03-4.9C6.453 3.677 8.087 3 10 3h34.02c2.147 0 3.943.723 5.39 2.17l10.22 10.15c1.493 1.587 2.24 3.407 2.24 5.46V68.8c0 1.913-.677 3.57-2.03 4.97-1.353 1.353-2.987 2.03-4.9 2.03H10c-1.913 0-3.547-.677-4.9-2.03-1.353-1.4-2.03-3.057-2.03-4.97Z" stroke="#3DA74E" stroke-width="4.2" stroke-linecap="round" stroke-linejoin="round"/><path d="M42.97 18.61V5.1H10c-1.307 0-2.45.467-3.43 1.4-.933.98-1.4 2.123-1.4 3.43V68.8c0 1.353.467 2.52 1.4 3.5.933.933 2.077 1.4 3.43 1.4h44.94c1.353 0 2.497-.467 3.43-1.4.933-.98 1.4-2.147 1.4-3.5V20.5c0-.047-4.9-.047-14.7 0-.56 0-1.05-.187-1.47-.56a2.1 2.1 0 0 1-.63-1.33Z" fill="#DEECDE"/><path d="M59.49 15.39 49.34 5.24C47.753 3.747 45.957 3 43.95 3H9.86c-1.867 0-3.477.677-4.83 2.03C3.677 6.43 3 8.087 3 10v58.94c0 1.913.677 3.547 2.03 4.9 1.353 1.353 2.963 2.03 4.83 2.03h45.01c1.913 0 3.547-.677 4.9-2.03 1.353-1.353 2.03-2.987 2.03-4.9V20.85c0-2.1-.77-3.92-2.31-5.46Z" fill="#DDECDE"/><path d="M3 68.94V10c0-1.913.677-3.57 2.03-4.97C6.383 3.677 7.993 3 9.86 3h34.09c2.007 0 3.803.747 5.39 2.24l10.15 10.15c1.54 1.54 2.31 3.36 2.31 5.46v48.09c0 1.913-.677 3.547-2.03 4.9-1.353 1.353-2.987 2.03-4.9 2.03H9.86c-1.867 0-3.477-.677-4.83-2.03C3.677 72.487 3 70.853 3 68.94Z" stroke="#3DA64E" stroke-width="4.2" stroke-linecap="round" stroke-linejoin="round"/><path d="M3.07 68.8V9.93c0-1.913.677-3.547 2.03-4.9C6.453 3.677 8.087 3 10 3h34.02c2.147 0 3.943.723 5.39 2.17l10.22 10.15c1.493 1.587 2.24 3.407 2.24 5.46V68.8c0 1.913-.677 3.57-2.03 4.97-1.353 1.353-2.987 2.03-4.9 2.03H10c-1.913 0-3.547-.677-4.9-2.03-1.353-1.4-2.03-3.057-2.03-4.97Z" stroke="#3DA74E" stroke-width="4.2" stroke-linecap="round" stroke-linejoin="round"/><path d="M42.97 18.61V5.1H10c-1.307 0-2.45.467-3.43 1.4-.933.98-1.4 2.123-1.4 3.43V68.8c0 1.353.467 2.52 1.4 3.5.933.933 2.077 1.4 3.43 1.4h44.94c1.353 0 2.497-.467 3.43-1.4.933-.98 1.4-2.147 1.4-3.5V20.5c0-.047-4.9-.047-14.7 0-.56 0-1.05-.187-1.47-.56a2.1 2.1 0 0 1-.63-1.33Z" fill="#DEECDE"/><path d="M59.49 15.39 49.34 5.24C47.753 3.747 45.957 3 43.95 3H9.86c-1.867 0-3.477.677-4.83 2.03C3.677 6.43 3 8.087 3 10v58.94c0 1.913.677 3.547 2.03 4.9 1.353 1.353 2.963 2.03 4.83 2.03h45.01c1.913 0 3.547-.677 4.9-2.03 1.353-1.353 2.03-2.987 2.03-4.9V20.85c0-2.1-.77-3.92-2.31-5.46Z" fill="#DDECDE"/><path d="M3 68.94V10c0-1.913.677-3.57 2.03-4.97C6.383 3.677 7.993 3 9.86 3h34.09c2.007 0 3.803.747 5.39 2.24l10.15 10.15c1.54 1.54 2.31 3.36 2.31 5.46v48.09c0 1.913-.677 3.547-2.03 4.9-1.353 1.353-2.987 2.03-4.9 2.03H9.86c-1.867 0-3.477-.677-4.83-2.03C3.677 72.487 3 70.853 3 68.94Z" stroke="#3DA64E" stroke-width="4.2" stroke-linecap="round" stroke-linejoin="round"/><path d="M3.07 68.8V9.93c0-1.913.677-3.547 2.03-4.9C6.453 3.677 8.087 3 10 3h34.02c2.147 0 3.943.723 5.39 2.17l10.22 10.15c1.493 1.587 2.24 3.407 2.24 5.46V68.8c0 1.913-.677 3.57-2.03 4.97-1.353 1.353-2.987 2.03-4.9 2.03H10c-1.913 0-3.547-.677-4.9-2.03-1.353-1.4-2.03-3.057-2.03-4.97Z" stroke="#3DA74E" stroke-width="4.2" stroke-linecap="round" stroke-linejoin="round"/><path d="M42.97 18.61V5.1H10c-1.307 0-2.45.467-3.43 1.4-.933.98-1.4 2.123-1.4 3.43V68.8c0 1.353.467 2.52 1.4 3.5.933.933 2.077 1.4 3.43 1.4h44.94c1.353 0 2.497-.467 3.43-1.4.933-.98 1.4-2.147 1.4-3.5V20.5c0-.047-4.9-.047-14.7 0-.56 0-1.05-.187-1.47-.56a2.1 2.1 0 0 1-.63-1.33Z" fill="#DEECDE"/><path d="M59.49 15.39 49.34 5.24C47.753 3.747 45.957 3 43.95 3H9.86c-1.867 0-3.477.677-4.83 2.03C3.677 6.43 3 8.087 3 10v58.94c0 1.913.677 3.547 2.03 4.9 1.353 1.353 2.963 2.03 4.83 2.03h45.01c1.913 0 3.547-.677 4.9-2.03 1.353-1.353 2.03-2.987 2.03-4.9V20.85c0-2.1-.77-3.92-2.31-5.46Z" fill="#DDECDE"/><path d="M3 68.94V10c0-1.913.677-3.57 2.03-4.97C6.383 3.677 7.993 3 9.86 3h34.09c2.007 0 3.803.747 5.39 2.24l10.15 10.15c1.54 1.54 2.31 3.36 2.31 5.46v48.09c0 1.913-.677 3.547-2.03 4.9-1.353 1.353-2.987 2.03-4.9 2.03H9.86c-1.867 0-3.477-.677-4.83-2.03C3.677 72.487 3 70.853 3 68.94Z" stroke="#3DA64E" stroke-width="4.2" stroke-linecap="round" stroke-linejoin="round"/><path d="M3.07 68.8V9.93c0-1.913.677-3.547 2.03-4.9C6.453 3.677 8.087 3 10 3h34.02c2.147 0 3.943.723 5.39 2.17l10.22 10.15c1.493 1.587 2.24 3.407 2.24 5.46V68.8c0 1.913-.677 3.57-2.03 4.97-1.353 1.353-2.987 2.03-4.9 2.03H10c-1.913 0-3.547-.677-4.9-2.03-1.353-1.4-2.03-3.057-2.03-4.97Z" stroke="#3DA74E" stroke-width="4.2" stroke-linecap="round" stroke-linejoin="round"/><path d="M42.97 18.61V5.1H10c-1.307 0-2.45.467-3.43 1.4-.933.98-1.4 2.123-1.4 3.43V68.8c0 1.353.467 2.52 1.4 3.5.933.933 2.077 1.4 3.43 1.4h44.94c1.353 0 2.497-.467 3.43-1.4.933-.98 1.4-2.147 1.4-3.5V20.5c0-.047-4.9-.047-14.7 0-.56 0-1.05-.187-1.47-.56a2.1 2.1 0 0 1-.63-1.33Z" fill="#DEECDE"/><path d="M59.49 15.39 49.34 5.24C47.753 3.747 45.957 3 43.95 3H9.86c-1.867 0-3.477.677-4.83 2.03C3.677 6.43 3 8.087 3 10v58.94c0 1.913.677 3.547 2.03 4.9 1.353 1.353 2.963 2.03 4.83 2.03h45.01c1.913 0 3.547-.677 4.9-2.03 1.353-1.353 2.03-2.987 2.03-4.9V20.85c0-2.1-.77-3.92-2.31-5.46Z" fill="#DDECDE"/><path d="M3 68.94V10c0-1.913.677-3.57 2.03-4.97C6.383 3.677 7.993 3 9.86 3h34.09c2.007 0 3.803.747 5.39 2.24l10.15 10.15c1.54 1.54 2.31 3.36 2.31 5.46v48.09c0 1.913-.677 3.547-2.03 4.9-1.353 1.353-2.987 2.03-4.9 2.03H9.86c-1.867 0-3.477-.677-4.83-2.03C3.677 72.487 3 70.853 3 68.94Z" stroke="#3DA64E" stroke-width="4.2" stroke-linecap="round" stroke-linejoin="round"/><path d="M3.07 68.8V9.93c0-1.913.677-3.547 2.03-4.9C6.453 3.677 8.087 3 10 3h34.02c2.147 0 3.943.723 5.39 2.17l10.22 10.15c1.493 1.587 2.24 3.407 2.24 5.46V68.8c0 1.913-.677 3.57-2.03 4.97-1.353 1.353-2.987 2.03-4.9 2.03H10c-1.913 0-3.547-.677-4.9-2.03-1.353-1.4-2.03-3.057-2.03-4.97Z" stroke="#3DA74E" stroke-width="4.2" stroke-linecap="round" stroke-linejoin="round"/><path d="M42.97 18.61V5.1H10c-1.307 0-2.45.467-3.43 1.4-.933.98-1.4 2.123-1.4 3.43V68.8c0 1.353.467 2.52 1.4 3.5.933.933 2.077 1.4 3.43 1.4h44.94c1.353 0 2.497-.467 3.43-1.4.933-.98 1.4-2.147 1.4-3.5V20.5c0-.047-4.9-.047-14.7 0-.56 0-1.05-.187-1.47-.56a2.1 2.1 0 0 1-.63-1.33Z" fill="#DEECDE"/><path d="M59.49 15.39 49.34 5.24C47.753 3.747 45.957 3 43.95 3H9.86c-1.867 0-3.477.677-4.83 2.03C3.677 6.43 3 8.087 3 10v58.94c0 1.913.677 3.547 2.03 4.9 1.353 1.353 2.963 2.03 4.83 2.03h45.01c1.913 0 3.547-.677 4.9-2.03 1.353-1.353 2.03-2.987 2.03-4.9V20.85c0-2.1-.77-3.92-2.31-5.46Z" fill="#DDECDE"/><path d="M3 68.94V10c0-1.913.677-3.57 2.03-4.97C6.383 3.677 7.993 3 9.86 3h34.09c2.007 0 3.803.747 5.39 2.24l10.15 10.15c1.54 1.54 2.31 3.36 2.31 5.46v48.09c0 1.913-.677 3.547-2.03 4.9-1.353 1.353-2.987 2.03-4.9 2.03H9.86c-1.867 0-3.477-.677-4.83-2.03C3.677 72.487 3 70.853 3 68.94Z" stroke="#3DA64E" stroke-width="4.2" stroke-linecap="round" stroke-linejoin="round"/><path d="M3.07 68.8V9.93c0-1.913.677-3.547 2.03-4.9C6.453 3.677 8.087 3 10 3h34.02c2.147 0 3.943.723 5.39 2.17l10.22 10.15c1.493 1.587 2.24 3.407 2.24 5.46V68.8c0 1.913-.677 3.57-2.03 4.97-1.353 1.353-2.987 2.03-4.9 2.03H10c-1.913 0-3.547-.677-4.9-2.03-1.353-1.4-2.03-3.057-2.03-4.97Z" stroke="#3DA74E" stroke-width="4.2" stroke-linecap="round" stroke-linejoin="round"/><path d="M42.97 18.61V5.1H10c-1.307 0-2.45.467-3.43 1.4-.933.98-1.4 2.123-1.4 3.43V68.8c0 1.353.467 2.52 1.4 3.5.933.933 2.077 1.4 3.43 1.4h44.94c1.353 0 2.497-.467 3.43-1.4.933-.98 1.4-2.147 1.4-3.5V20.5c0-.047-4.9-.047-14.7 0-.56 0-1.05-.187-1.47-.56a2.1 2.1 0 0 1-.63-1.33Z" fill="#DEECDE"/><path d="M59.49 15.39 49.34 5.24C47.753 3.747 45.957 3 43.95 3H9.86c-1.867 0-3.477.677-4.83 2.03C3.677 6.43 3 8.087 3 10v58.94c0 1.913.677 3.547 2.03 4.9 1.353 1.353 2.963 2.03 4.83 2.03h45.01c1.913 0 3.547-.677 4.9-2.03 1.353-1.353 2.03-2.987 2.03-4.9V20.85c0-2.1-.77-3.92-2.31-5.46Z" fill="#DDECDE"/><path d="M3 68.94V10c0-1.913.677-3.57 2.03-4.97C6.383 3.677 7.993 3 9.86 3h34.09c2.007 0 3.803.747 5.39 2.24l10.15 10.15c1.54 1.54 2.31 3.36 2.31 5.46v48.09c0 1.913-.677 3.547-2.03 4.9-1.353 1.353-2.987 2.03-4.9 2.03H9.86c-1.867 0-3.477-.677-4.83-2.03C3.677 72.487 3 70.853 3 68.94Z" stroke="#3DA64E" stroke-width="4.2" stroke-linecap="round" stroke-linejoin="round"/><path d="M3.07 68.8V9.93c0-1.913.677-3.547 2.03-4.9C6.453 3.677 8.087 3 10 3h34.02c2.147 0 3.943.723 5.39 2.17l10.22 10.15c1.493 1.587 2.24 3.407 2.24 5.46V68.8c0 1.913-.677 3.57-2.03 4.97-1.353 1.353-2.987 2.03-4.9 2.03H10c-1.913 0-3.547-.677-4.9-2.03-1.353-1.4-2.03-3.057-2.03-4.97Z" stroke="#3DA74E" stroke-width="4.2" stroke-linecap="round" stroke-linejoin="round"/><path d="M42.97 18.61V5.1H10c-1.307 0-2.45.467-3.43 1.4-.933.98-1.4 2.123-1.4 3.43V68.8c0 1.353.467 2.52 1.4 3.5.933.933 2.077 1.4 3.43 1.4h44.94c1.353 0 2.497-.467 3.43-1.4.933-.98 1.4-2.147 1.4-3.5V20.5c0-.047-4.9-.047-14.7 0-.56 0-1.05-.187-1.47-.56a2.1 2.1 0 0 1-.63-1.33Z" fill="#DEECDE"/><path d="M59.49 15.39 49.34 5.24C47.753 3.747 45.957 3 43.95 3H9.86c-1.867 0-3.477.677-4.83 2.03C3.677 6.43 3 8.087 3 10v58.94c0 1.913.677 3.547 2.03 4.9 1.353 1.353 2.963 2.03 4.83 2.03h45.01c1.913 0 3.547-.677 4.9-2.03 1.353-1.353 2.03-2.987 2.03-4.9V20.85c0-2.1-.77-3.92-2.31-5.46Z" fill="#DDECDE"/><path d="M3 68.94V10c0-1.913.677-3.57 2.03-4.97C6.383 3.677 7.993 3 9.86 3h34.09c2.007 0 3.803.747 5.39 2.24l10.15 10.15c1.54 1.54 2.31 3.36 2.31 5.46v48.09c0 1.913-.677 3.547-2.03 4.9-1.353 1.353-2.987 2.03-4.9 2.03H9.86c-1.867 0-3.477-.677-4.83-2.03C3.677 72.487 3 70.853 3 68.94Z" stroke="#3DA64E" stroke-width="4.2" stroke-linecap="round" stroke-linejoin="round"/><path d="M3.07 68.8V9.93c0-1.913.677-3.547 2.03-4.9C6.453 3.677 8.087 3 10 3h34.02c2.147 0 3.943.723 5.39 2.17l10.22 10.15c1.493 1.587 2.24 3.407 2.24 5.46V68.8c0 1.913-.677 3.57-2.03 4.97-1.353 1.353-2.987 2.03-4.9 2.03H10c-1.913 0-3.547-.677-4.9-2.03-1.353-1.4-2.03-3.057-2.03-4.97Z" stroke="#3DA74E" stroke-width="4.2" stroke-linecap="round" stroke-linejoin="round"/><path d="M42.97 18.61V5.1H10c-1.307 0-2.45.467-3.43 1.4-.933.98-1.4 2.123-1.4 3.43V68.8c0 1.353.467 2.52 1.4 3.5.933.933 2.077 1.4 3.43 1.4h44.94c1.353 0 2.497-.467 3.43-1.4.933-.98 1.4-2.147 1.4-3.5V20.5c0-.047-4.9-.047-14.7 0-.56 0-1.05-.187-1.47-.56a2.1 2.1 0 0 1-.63-1.33Z" fill="#DEECDE"/><path d="M59.49 15.39 49.34 5.24C47.753 3.747 45.957 3 43.95 3H9.86c-1.867 0-3.477.677-4.83 2.03C3.677 6.43 3 8.087 3 10v58.94c0 1.913.677 3.547 2.03 4.9 1.353 1.353 2.963 2.03 4.83 2.03h45.01c1.913 0 3.547-.677 4.9-2.03 1.353-1.353 2.03-2.987 2.03-4.9V20.85c0-2.1-.77-3.92-2.31-5.46Z" fill="#DDECDE"/><path d="M3 68.94V10c0-1.913.677-3.57 2.03-4.97C6.383 3.677 7.993 3 9.86 3h34.09c2.007 0 3.803.747 5.39 2.24l10.15 10.15c1.54 1.54 2.31 3.36 2.31 5.46v48.09c0 1.913-.677 3.547-2.03 4.9-1.353 1.353-2.987 2.03-4.9 2.03H9.86c-1.867 0-3.477-.677-4.83-2.03C3.677 72.487 3 70.853 3 68.94Z" stroke="#3DA64E" stroke-width="4.2" stroke-linecap="round" stroke-linejoin="round"/><path d="M3.07 68.8V9.93c0-1.913.677-3.547 2.03-4.9C6.453 3.677 8.087 3 10 3h34.02c2.147 0 3.943.723 5.39 2.17l10.22 10.15c1.493 1.587 2.24 3.407 2.24 5.46V68.8c0 1.913-.677 3.57-2.03 4.97-1.353 1.353-2.987 2.03-4.9 2.03H10c-1.913 0-3.547-.677-4.9-2.03-1.353-1.4-2.03-3.057-2.03-4.97Z" stroke="#3DA74E" stroke-width="4.2" stroke-linecap="round" stroke-linejoin="round"/><path d="M42.97 18.61V5.1H10c-1.307 0-2.45.467-3.43 1.4-.933.98-1.4 2.123-1.4 3.43V68.8c0 1.353.467 2.52 1.4 3.5.933.933 2.077 1.4 3.43 1.4h44.94c1.353 0 2.497-.467 3.43-1.4.933-.98 1.4-2.147 1.4-3.5V20.5c0-.047-4.9-.047-14.7 0-.56 0-1.05-.187-1.47-.56a2.1 2.1 0 0 1-.63-1.33Z" fill="#DEECDE"/><path d="M59.49 15.39 49.34 5.24C47.753 3.747 45.957 3 43.95 3H9.86c-1.867 0-3.477.677-4.83 2.03C3.677 6.43 3 8.087 3 10v58.94c0 1.913.677 3.547 2.03 4.9 1.353 1.353 2.963 2.03 4.83 2.03h45.01c1.913 0 3.547-.677 4.9-2.03 1.353-1.353 2.03-2.987 2.03-4.9V20.85c0-2.1-.77-3.92-2.31-5.46Z" fill="#DDECDE"/><path d="M3 68.94V10c0-1.913.677-3.57 2.03-4.97C6.383 3.677 7.993 3 9.86 3h34.09c2.007 0 3.803.747 5.39 2.24l10.15 10.15c1.54 1.54 2.31 3.36 2.31 5.46v48.09c0 1.913-.677 3.547-2.03 4.9-1.353 1.353-2.987 2.03-4.9 2.03H9.86c-1.867 0-3.477-.677-4.83-2.03C3.677 72.487 3 70.853 3 68.94Z" stroke="#3DA64E" stroke-width="4.2" stroke-linecap="round" stroke-linejoin="round"/><path d="M3.07 68.8V9.93c0-1.913.677-3.547 2.03-4.9C6.453 3.677 8.087 3 10 3h34.02c2.147 0 3.943.723 5.39 2.17l10.22 10.15c1.493 1.587 2.24 3.407 2.24 5.46V68.8c0 1.913-.677 3.57-2.03 4.97-1.353 1.353-2.987 2.03-4.9 2.03H10c-1.913 0-3.547-.677-4.9-2.03-1.353-1.4-2.03-3.057-2.03-4.97Z" stroke="#3DA74E" stroke-width="4.2" stroke-linecap="round" stroke-linejoin="round"/><path d="M42.97 18.61V5.1H10c-1.307 0-2.45.467-3.43 1.4-.933.98-1.4 2.123-1.4 3.43V68.8c0 1.353.467 2.52 1.4 3.5.933.933 2.077 1.4 3.43 1.4h44.94c1.353 0 2.497-.467 3.43-1.4.933-.98 1.4-2.147 1.4-3.5V20.5c0-.047-4.9-.047-14.7 0-.56 0-1.05-.187-1.47-.56a2.1 2.1 0 0 1-.63-1.33Z" fill="#DEECDE"/><path d="M59.49 15.39 49.34 5.24C47.753 3.747 45.957 3 43.95 3H9.86c-1.867 0-3.477.677-4.83 2.03C3.677 6.43 3 8.087 3 10v58.94c0 1.913.677 3.547 2.03 4.9 1.353 1.353 2.963 2.03 4.83 2.03h45.01c1.913 0 3.547-.677 4.9-2.03 1.353-1.353 2.03-2.987 2.03-4.9V20.85c0-2.1-.77-3.92-2.31-5.46Z" fill="#DDECDE"/><path d="M3 68.94V10c0-1.913.677-3.57 2.03-4.97C6.383 3.677 7.993 3 9.86 3h34.09c2.007 0 3.803.747 5.39 2.24l10.15 10.15c1.54 1.54 2.31 3.36 2.31 5.46v48.09c0 1.913-.677 3.547-2.03 4.9-1.353 1.353-2.987 2.03-4.9 2.03H9.86c-1.867 0-3.477-.677-4.83-2.03C3.677 72.487 3 70.853 3 68.94Z" stroke="#3DA64E" stroke-width="4.2" stroke-linecap="round" stroke-linejoin="round"/><path d="M3.07 68.8V9.93c0-1.913.677-3.547 2.03-4.9C6.453 3.677 8.087 3 10 3h34.02c2.147 0 3.943.723 5.39 2.17l10.22 10.15c1.493 1.587 2.24 3.407 2.24 5.46V68.8c0 1.913-.677 3.57-2.03 4.97-1.353 1.353-2.987 2.03-4.9 2.03H10c-1.913 0-3.547-.677-4.9-2.03-1.353-1.4-2.03-3.057-2.03-4.97Z" stroke="#3DA74E" stroke-width="4.2" stroke-linecap="round" stroke-linejoin="round"/><path d="M42.97 18.61V5.1H10c-1.307 0-2.45.467-3.43 1.4-.933.98-1.4 2.123-1.4 3.43V68.8c0 1.353.467 2.52 1.4 3.5.933.933 2.077 1.4 3.43 1.4h44.94c1.353 0 2.497-.467 3.43-1.4.933-.98 1.4-2.147 1.4-3.5V20.5c0-.047-4.9-.047-14.7 0-.56 0-1.05-.187-1.47-.56a2.1 2.1 0 0 1-.63-1.33Z" fill="#DEECDE"/><path d="M59.49 15.39 49.34 5.24C47.753 3.747 45.957 3 43.95 3H9.86c-1.867 0-3.477.677-4.83 2.03C3.677 6.43 3 8.087 3 10v58.94c0 1.913.677 3.547 2.03 4.9 1.353 1.353 2.963 2.03 4.83 2.03h45.01c1.913 0 3.547-.677 4.9-2.03 1.353-1.353 2.03-2.987 2.03-4.9V20.85c0-2.1-.77-3.92-2.31-5.46Z" fill="#DDECDE"/><path d="M3 68.94V10c0-1.913.677-3.57 2.03-4.97C6.383 3.677 7.993 3 9.86 3h34.09c2.007 0 3.803.747 5.39 2.24l10.15 10.15c1.54 1.54 2.31 3.36 2.31 5.46v48.09c0 1.913-.677 3.547-2.03 4.9-1.353 1.353-2.987 2.03-4.9 2.03H9.86c-1.867 0-3.477-.677-4.83-2.03C3.677 72.487 3 70.853 3 68.94Z" stroke="#3DA64E" stroke-width="4.2" stroke-linecap="round" stroke-linejoin="round"/><path d="M3.07 68.8V9.93c0-1.913.677-3.547 2.03-4.9C6.453 3.677 8.087 3 10 3h34.02c2.147 0 3.943.723 5.39 2.17l10.22 10.15c1.493 1.587 2.24 3.407 2.24 5.46V68.8c0 1.913-.677 3.57-2.03 4.97-1.353 1.353-2.987 2.03-4.9 2.03H10c-1.913 0-3.547-.677-4.9-2.03-1.353-1.4-2.03-3.057-2.03-4.97Z" stroke="#3DA74E" stroke-width="4.2" stroke-linecap="round" stroke-linejoin="round"/><path d="M42.97 18.61V5.1H10c-1.307 0-2.45.467-3.43 1.4-.933.98-1.4 2.123-1.4 3.43V68.8c0 1.353.467 2.52 1.4 3.5.933.933 2.077 1.4 3.43 1.4h44.94c1.353 0 2.497-.467 3.43-1.4.933-.98 1.4-2.147 1.4-3.5V20.5c0-.047-4.9-.047-14.7 0-.56 0-1.05-.187-1.47-.56a2.1 2.1 0 0 1-.63-1.33Z" fill="#DEECDE"/><path d="M59.49 15.39 49.34 5.24C47.753 3.747 45.957 3 43.95 3H9.86c-1.867 0-3.477.677-4.83 2.03C3.677 6.43 3 8.087 3 10v58.94c0 1.913.677 3.547 2.03 4.9 1.353 1.353 2.963 2.03 4.83 2.03h45.01c1.913 0 3.547-.677 4.9-2.03 1.353-1.353 2.03-2.987 2.03-4.9V20.85c0-2.1-.77-3.92-2.31-5.46Z" fill="#DDECDE"/><path d="M3 68.94V10c0-1.913.677-3.57 2.03-4.97C6.383 3.677 7.993 3 9.86 3h34.09c2.007 0 3.803.747 5.39 2.24l10.15 10.15c1.54 1.54 2.31 3.36 2.31 5.46v48.09c0 1.913-.677 3.547-2.03 4.9-1.353 1.353-2.987 2.03-4.9 2.03H9.86c-1.867 0-3.477-.677-4.83-2.03C3.677 72.487 3 70.853 3 68.94Z" stroke="#3DA64E" stroke-width="4.2" stroke-linecap="round" stroke-linejoin="round"/><path d="M3.07 68.8V9.93c0-1.913.677-3.547 2.03-4.9C6.453 3.677 8.087 3 10 3h34.02c2.147 0 3.943.723 5.39 2.17l10.22 10.15c1.493 1.587 2.24 3.407 2.24 5.46V68.8c0 1.913-.677 3.57-2.03 4.97-1.353 1.353-2.987 2.03-4.9 2.03H10c-1.913 0-3.547-.677-4.9-2.03-1.353-1.4-2.03-3.057-2.03-4.97Z" stroke="#3DA74E" stroke-width="4.2" stroke-linecap="round" stroke-linejoin="round"/><path d="M42.97 18.61V5.1H10c-1.307 0-2.45.467-3.43 1.4-.933.98-1.4 2.123-1.4 3.43V68.8c0 1.353.467 2.52 1.4 3.5.933.933 2.077 1.4 3.43 1.4h44.94c1.353 0 2.497-.467 3.43-1.4.933-.98 1.4-2.147 1.4-3.5V20.5c0-.047-4.9-.047-14.7 0-.56 0-1.05-.187-1.47-.56a2.1 2.1 0 0 1-.63-1.33Z" fill="#DEECDE"/><path d="M59.49 15.39 49.34 5.24C47.753 3.747 45.957 3 43.95 3H9.86c-1.867 0-3.477.677-4.83 2.03C3.677 6.43 3 8.087 3 10v58.94c0 1.913.677 3.547 2.03 4.9 1.353 1.353 2.963 2.03 4.83 2.03h45.01c1.913 0 3.547-.677 4.9-2.03 1.353-1.353 2.03-2.987 2.03-4.9V20.85c0-2.1-.77-3.92-2.31-5.46Z" fill="#DDECDE"/><path d="M3 68.94V10c0-1.913.677-3.57 2.03-4.97C6.383 3.677 7.993 3 9.86 3h34.09c2.007 0 3.803.747 5.39 2.24l10.15 10.15c1.54 1.54 2.31 3.36 2.31 5.46v48.09c0 1.913-.677 3.547-2.03 4.9-1.353 1.353-2.987 2.03-4.9 2.03H9.86c-1.867 0-3.477-.677-4.83-2.03C3.677 72.487 3 70.853 3 68.94Z" stroke="#3DA64E" stroke-width="4.2" stroke-linecap="round" stroke-linejoin="round"/><path d="M3.07 68.8V9.93c0-1.913.677-3.547 2.03-4.9C6.453 3.677 8.087 3 10 3h34.02c2.147 0 3.943.723 5.39 2.17l10.22 10.15c1.493 1.587 2.24 3.407 2.24 5.46V68.8c0 1.913-.677 3.57-2.03 4.97-1.353 1.353-2.987 2.03-4.9 2.03H10c-1.913 0-3.547-.677-4.9-2.03-1.353-1.4-2.03-3.057-2.03-4.97Z" stroke="#3DA74E" stroke-width="4.2" stroke-linecap="round" stroke-linejoin="round"/><path d="M42.97 18.61V5.1H10c-1.307 0-2.45.467-3.43 1.4-.933.98-1.4 2.123-1.4 3.43V68.8c0 1.353.467 2.52 1.4 3.5.933.933 2.077 1.4 3.43 1.4h44.94c1.353 0 2.497-.467 3.43-1.4.933-.98 1.4-2.147 1.4-3.5V20.5c0-.047-4.9-.047-14.7 0-.56 0-1.05-.187-1.47-.56a2.1 2.1 0 0 1-.63-1.33Z" fill="#DEECDE"/><path d="M59.49 15.39 49.34 5.24C47.753 3.747 45.957 3 43.95 3H9.86c-1.867 0-3.477.677-4.83 2.03C3.677 6.43 3 8.087 3 10v58.94c0 1.913.677 3.547 2.03 4.9 1.353 1.353 2.963 2.03 4.83 2.03h45.01c1.913 0 3.547-.677 4.9-2.03 1.353-1.353 2.03-2.987 2.03-4.9V20.85c0-2.1-.77-3.92-2.31-5.46Z" fill="#DDECDE"/><path d="M3 68.94V10c0-1.913.677-3.57 2.03-4.97C6.383 3.677 7.993 3 9.86 3h34.09c2.007 0 3.803.747 5.39 2.24l10.15 10.15c1.54 1.54 2.31 3.36 2.31 5.46v48.09c0 1.913-.677 3.547-2.03 4.9-1.353 1.353-2.987 2.03-4.9 2.03H9.86c-1.867 0-3.477-.677-4.83-2.03C3.677 72.487 3 70.853 3 68.94Z" stroke="#3DA64E" stroke-width="4.2" stroke-linecap="round" stroke-linejoin="round"/><path d="M3.07 68.8V9.93c0-1.913.677-3.547 2.03-4.9C6.453 3.677 8.087 3 10 3h34.02c2.147 0 3.943.723 5.39 2.17l10.22 10.15c1.493 1.587 2.24 3.407 2.24 5.46V68.8c0 1.913-.677 3.57-2.03 4.97-1.353 1.353-2.987 2.03-4.9 2.03H10c-1.913 0-3.547-.677-4.9-2.03-1.353-1.4-2.03-3.057-2.03-4.97Z" stroke="#3DA74E" stroke-width="4.2" stroke-linecap="round" stroke-linejoin="round"/><path d="M42.97 18.61V5.1H10c-1.307 0-2.45.467-3.43 1.4-.933.98-1.4 2.123-1.4 3.43V68.8c0 1.353.467 2.52 1.4 3.5.933.933 2.077 1.4 3.43 1.4h44.94c1.353 0 2.497-.467 3.43-1.4.933-.98 1.4-2.147 1.4-3.5V20.5c0-.047-4.9-.047-14.7 0-.56 0-1.05-.187-1.47-.56a2.1 2.1 0 0 1-.63-1.33Z" fill="#DEECDE"/><path d="M59.49 15.39 49.34 5.24C47.753 3.747 45.957 3 43.95 3H9.86c-1.867 0-3.477.677-4.83 2.03C3.677 6.43 3 8.087 3 10v58.94c0 1.913.677 3.547 2.03 4.9 1.353 1.353 2.963 2.03 4.83 2.03h45.01c1.913 0 3.547-.677 4.9-2.03 1.353-1.353 2.03-2.987 2.03-4.9V20.85c0-2.1-.77-3.92-2.31-5.46Z" fill="#DDECDE"/><path d="M3 68.94V10c0-1.913.677-3.57 2.03-4.97C6.383 3.677 7.993 3 9.86 3h34.09c2.007 0 3.803.747 5.39 2.24l10.15 10.15c1.54 1.54 2.31 3.36 2.31 5.46v48.09c0 1.913-.677 3.547-2.03 4.9-1.353 1.353-2.987 2.03-4.9 2.03H9.86c-1.867 0-3.477-.677-4.83-2.03C3.677 72.487 3 70.853 3 68.94Z" stroke="#3DA64E" stroke-width="4.2" stroke-linecap="round" stroke-linejoin="round"/><path d="M3.07 68.8V9.93c0-1.913.677-3.547 2.03-4.9C6.453 3.677 8.087 3 10 3h34.02c2.147 0 3.943.723 5.39 2.17l10.22 10.15c1.493 1.587 2.24 3.407 2.24 5.46V68.8c0 1.913-.677 3.57-2.03 4.97-1.353 1.353-2.987 2.03-4.9 2.03H10c-1.913 0-3.547-.677-4.9-2.03-1.353-1.4-2.03-3.057-2.03-4.97Z" stroke="#3DA74E" stroke-width="4.2" stroke-linecap="round" stroke-linejoin="round"/><path d="M42.97 18.61V5.1H10c-1.307 0-2.45.467-3.43 1.4-.933.98-1.4 2.123-1.4 3.43V68.8c0 1.353.467 2.52 1.4 3.5.933.933 2.077 1.4 3.43 1.4h44.94c1.353 0 2.497-.467 3.43-1.4.933-.98 1.4-2.147 1.4-3.5V20.5c0-.047-4.9-.047-14.7 0-.56 0-1.05-.187-1.47-.56a2.1 2.1 0 0 1-.63-1.33Z" fill="#DEECDE"/><path d="M59.49 15.39 49.34 5.24C47.753 3.747 45.957 3 43.95 3H9.86c-1.867 0-3.477.677-4.83 2.03C3.677 6.43 3 8.087 3 10v58.94c0 1.913.677 3.547 2.03 4.9 1.353 1.353 2.963 2.03 4.83 2.03h45.01c1.913 0 3.547-.677 4.9-2.03 1.353-1.353 2.03-2.987 2.03-4.9V20.85c0-2.1-.77-3.92-2.31-5.46Z" fill="#DDECDE"/><path d="M3 68.94V10c0-1.913.677-3.57 2.03-4.97C6.383 3.677 7.993 3 9.86 3h34.09c2.007 0 3.803.747 5.39 2.24l10.15 10.15c1.54 1.54 2.31 3.36 2.31 5.46v48.09c0 1.913-.677 3.547-2.03 4.9-1.353 1.353-2.987 2.03-4.9 2.03H9.86c-1.867 0-3.477-.677-4.83-2.03C3.677 72.487 3 70.853 3 68.94Z" stroke="#3DA64E" stroke-width="4.2" stroke-linecap="round" stroke-linejoin="round"/><path d="M3.07 68.8V9.93c0-1.913.677-3.547 2.03-4.9C6.453 3.677 8.087 3 10 3h34.02c2.147 0 3.943.723 5.39 2.17l10.22 10.15c1.493 1.587 2.24 3.407 2.24 5.46V68.8c0 1.913-.677 3.57-2.03 4.97-1.353 1.353-2.987 2.03-4.9 2.03H10c-1.913 0-3.547-.677-4.9-2.03-1.353-1.4-2.03-3.057-2.03-4.97Z" stroke="#3DA74E" stroke-width="4.2" stroke-linecap="round" stroke-linejoin="round"/><path d="M42.97 18.61V5.1H10c-1.307 0-2.45.467-3.43 1.4-.933.98-1.4 2.123-1.4 3.43V68.8c0 1.353.467 2.52 1.4 3.5.933.933 2.077 1.4 3.43 1.4h44.94c1.353 0 2.497-.467 3.43-1.4.933-.98 1.4-2.147 1.4-3.5V20.5c0-.047-4.9-.047-14.7 0-.56 0-1.05-.187-1.47-.56a2.1 2.1 0 0 1-.63-1.33Z" fill="#DEECDE"/><path d="M59.49 15.39 49.34 5.24C47.753 3.747 45.957 3 43.95 3H9.86c-1.867 0-3.477.677-4.83 2.03C3.677 6.43 3 8.087 3 10v58.94c0 1.913.677 3.547 2.03 4.9 1.353 1.353 2.963 2.03 4.83 2.03h45.01c1.913 0 3.547-.677 4.9-2.03 1.353-1.353 2.03-2.987 2.03-4.9V20.85c0-2.1-.77-3.92-2.31-5.46Z" fill="#DDECDE"/><path d="M3 68.94V10c0-1.913.677-3.57 2.03-4.97C6.383 3.677 7.993 3 9.86 3h34.09c2.007 0 3.803.747 5.39 2.24l10.15 10.15c1.54 1.54 2.31 3.36 2.31 5.46v48.09c0 1.913-.677 3.547-2.03 4.9-1.353 1.353-2.987 2.03-4.9 2.03H9.86c-1.867 0-3.477-.677-4.83-2.03C3.677 72.487 3 70.853 3 68.94Z" stroke="#3DA64E" stroke-width="4.2" stroke-linecap="round" stroke-linejoin="round"/><path d="M3.07 68.8V9.93c0-1.913.677-3.547 2.03-4.9C6.453 3.677 8.087 3 10 3h34.02c2.147 0 3.943.723 5.39 2.17l10.22 10.15c1.493 1.587 2.24 3.407 2.24 5.46V68.8c0 1.913-.677 3.57-2.03 4.97-1.353 1.353-2.987 2.03-4.9 2.03H10c-1.913 0-3.547-.677-4.9-2.03-1.353-1.4-2.03-3.057-2.03-4.97Z" stroke="#3DA74E" stroke-width="4.2" stroke-linecap="round" stroke-linejoin="round"/><path d="M42.97 18.61V5.1H10c-1.307 0-2.45.467-3.43 1.4-.933.98-1.4 2.123-1.4 3.43V68.8c0 1.353.467 2.52 1.4 3.5.933.933 2.077 1.4 3.43 1.4h44.94c1.353 0 2.497-.467 3.43-1.4.933-.98 1.4-2.147 1.4-3.5V20.5c0-.047-4.9-.047-14.7 0-.56 0-1.05-.187-1.47-.56a2.1 2.1 0 0 1-.63-1.33Z" fill="#DEECDE"/><path d="M59.49 15.39 49.34 5.24C47.753 3.747 45.957 3 43.95 3H9.86c-1.867 0-3.477.677-4.83 2.03C3.677 6.43 3 8.087 3 10v58.94c0 1.913.677 3.547 2.03 4.9 1.353 1.353 2.963 2.03 4.83 2.03h45.01c1.913 0 3.547-.677 4.9-2.03 1.353-1.353 2.03-2.987 2.03-4.9V20.85c0-2.1-.77-3.92-2.31-5.46Z" fill="#DDECDE"/><path d="M3 68.94V10c0-1.913.677-3.57 2.03-4.97C6.383 3.677 7.993 3 9.86 3h34.09c2.007 0 3.803.747 5.39 2.24l10.15 10.15c1.54 1.54 2.31 3.36 2.31 5.46v48.09c0 1.913-.677 3.547-2.03 4.9-1.353 1.353-2.987 2.03-4.9 2.03H9.86c-1.867 0-3.477-.677-4.83-2.03C3.677 72.487 3 70.853 3 68.94Z" stroke="#3DA64E" stroke-width="4.2" stroke-linecap="round" stroke-linejoin="round"/><path d="M3.07 68.8V9.93c0-1.913.677-3.547 2.03-4.9C6.453 3.677 8.087 3 10 3h34.02c2.147 0 3.943.723 5.39 2.17l10.22 10.15c1.493 1.587 2.24 3.407 2.24 5.46V68.8c0 1.913-.677 3.57-2.03 4.97-1.353 1.353-2.987 2.03-4.9 2.03H10c-1.913 0-3.547-.677-4.9-2.03-1.353-1.4-2.03-3.057-2.03-4.97Z" stroke="#3DA74E" stroke-width="4.2" stroke-linecap="round" stroke-linejoin="round"/><path d="M42.97 18.61V5.1H10c-1.307 0-2.45.467-3.43 1.4-.933.98-1.4 2.123-1.4 3.43V68.8c0 1.353.467 2.52 1.4 3.5.933.933 2.077 1.4 3.43 1.4h44.94c1.353 0 2.497-.467 3.43-1.4.933-.98 1.4-2.147 1.4-3.5V20.5c0-.047-4.9-.047-14.7 0-.56 0-1.05-.187-1.47-.56a2.1 2.1 0 0 1-.63-1.33Z" fill="#DEECDE"/><path d="M59.49 15.39 49.34 5.24C47.753 3.747 45.957 3 43.95 3H9.86c-1.867 0-3.477.677-4.83 2.03C3.677 6.43 3 8.087 3 10v58.94c0 1.913.677 3.547 2.03 4.9 1.353 1.353 2.963 2.03 4.83 2.03h45.01c1.913 0 3.547-.677 4.9-2.03 1.353-1.353 2.03-2.987 2.03-4.9V20.85c0-2.1-.77-3.92-2.31-5.46Z" fill="#DDECDE"/><path d="M3 68.94V10c0-1.913.677-3.57 2.03-4.97C6.383 3.677 7.993 3 9.86 3h34.09c2.007 0 3.803.747 5.39 2.24l10.15 10.15c1.54 1.54 2.31 3.36 2.31 5.46v48.09c0 1.913-.677 3.547-2.03 4.9-1.353 1.353-2.987 2.03-4.9 2.03H9.86c-1.867 0-3.477-.677-4.83-2.03C3.677 72.487 3 70.853 3 68.94Z" stroke="#3DA64E" stroke-width="4.2" stroke-linecap="round" stroke-linejoin="round"/><path d="M3.07 68.8V9.93c0-1.913.677-3.547 2.03-4.9C6.453 3.677 8.087 3 10 3h34.02c2.147 0 3.943.723 5.39 2.17l10.22 10.15c1.493 1.587 2.24 3.407 2.24 5.46V68.8c0 1.913-.677 3.57-2.03 4.97-1.353 1.353-2.987 2.03-4.9 2.03H10c-1.913 0-3.547-.677-4.9-2.03-1.353-1.4-2.03-3.057-2.03-4.97Z" stroke="#3DA74E" stroke-width="4.2" stroke-linecap="round" stroke-linejoin="round"/><path d="M42.97 18.61V5.1H10c-1.307 0-2.45.467-3.43 1.4-.933.98-1.4 2.123-1.4 3.43V68.8c0 1.353.467 2.52 1.4 3.5.933.933 2.077 1.4 3.43 1.4h44.94c1.353 0 2.497-.467 3.43-1.4.933-.98 1.4-2.147 1.4-3.5V20.5c0-.047-4.9-.047-14.7 0-.56 0-1.05-.187-1.47-.56a2.1 2.1 0 0 1-.63-1.33Z" fill="#DEECDE"/><path d="M59.49 15.39 49.34 5.24C47.753 3.747 45.957 3 43.95 3H9.86c-1.867 0-3.477.677-4.83 2.03C3.677 6.43 3 8.087 3 10v58.94c0 1.913.677 3.547 2.03 4.9 1.353 1.353 2.963 2.03 4.83 2.03h45.01c1.913 0 3.547-.677 4.9-2.03 1.353-1.353 2.03-2.987 2.03-4.9V20.85c0-2.1-.77-3.92-2.31-5.46Z" fill="#DDECDE"/><path d="M3 68.94V10c0-1.913.677-3.57 2.03-4.97C6.383 3.677 7.993 3 9.86 3h34.09c2.007 0 3.803.747 5.39 2.24l10.15 10.15c1.54 1.54 2.31 3.36 2.31 5.46v48.09c0 1.913-.677 3.547-2.03 4.9-1.353 1.353-2.987 2.03-4.9 2.03H9.86c-1.867 0-3.477-.677-4.83-2.03C3.677 72.487 3 70.853 3 68.94Z" stroke="#3DA64E" stroke-width="4.2" stroke-linecap="round" stroke-linejoin="round"/><path d="M3.07 68.8V9.93c0-1.913.677-3.547 2.03-4.9C6.453 3.677 8.087 3 10 3h34.02c2.147 0 3.943.723 5.39 2.17l10.22 10.15c1.493 1.587 2.24 3.407 2.24 5.46V68.8c0 1.913-.677 3.57-2.03 4.97-1.353 1.353-2.987 2.03-4.9 2.03H10c-1.913 0-3.547-.677-4.9-2.03-1.353-1.4-2.03-3.057-2.03-4.97Z" stroke="#3DA74E" stroke-width="4.2" stroke-linecap="round" stroke-linejoin="round"/><path d="M42.97 18.61V5.1H10c-1.307 0-2.45.467-3.43 1.4-.933.98-1.4 2.123-1.4 3.43V68.8c0 1.353.467 2.52 1.4 3.5.933.933 2.077 1.4 3.43 1.4h44.94c1.353 0 2.497-.467 3.43-1.4.933-.98 1.4-2.147 1.4-3.5V20.5c0-.047-4.9-.047-14.7 0-.56 0-1.05-.187-1.47-.56a2.1 2.1 0 0 1-.63-1.33Z" fill="#DEECDE"/><path d="M59.49 15.39 49.34 5.24C47.753 3.747 45.957 3 43.95 3H9.86c-1.867 0-3.477.677-4.83 2.03C3.677 6.43 3 8.087 3 10v58.94c0 1.913.677 3.547 2.03 4.9 1.353 1.353 2.963 2.03 4.83 2.03h45.01c1.913 0 3.547-.677 4.9-2.03 1.353-1.353 2.03-2.987 2.03-4.9V20.85c0-2.1-.77-3.92-2.31-5.46Z" fill="#DDECDE"/><path d="M3 68.94V10c0-1.913.677-3.57 2.03-4.97C6.383 3.677 7.993 3 9.86 3h34.09c2.007 0 3.803.747 5.39 2.24l10.15 10.15c1.54 1.54 2.31 3.36 2.31 5.46v48.09c0 1.913-.677 3.547-2.03 4.9-1.353 1.353-2.987 2.03-4.9 2.03H9.86c-1.867 0-3.477-.677-4.83-2.03C3.677 72.487 3 70.853 3 68.94Z" stroke="#3DA64E" stroke-width="4.2" stroke-linecap="round" stroke-linejoin="round"/><path d="M3.07 68.8V9.93c0-1.913.677-3.547 2.03-4.9C6.453 3.677 8.087 3 10 3h34.02c2.147 0 3.943.723 5.39 2.17l10.22 10.15c1.493 1.587 2.24 3.407 2.24 5.46V68.8c0 1.913-.677 3.57-2.03 4.97-1.353 1.353-2.987 2.03-4.9 2.03H10c-1.913 0-3.547-.677-4.9-2.03-1.353-1.4-2.03-3.057-2.03-4.97Z" stroke="#3DA74E" stroke-width="4.2" stroke-linecap="round" stroke-linejoin="round"/><path d="M42.97 18.61V5.1H10c-1.307 0-2.45.467-3.43 1.4-.933.98-1.4 2.123-1.4 3.43V68.8c0 1.353.467 2.52 1.4 3.5.933.933 2.077 1.4 3.43 1.4h44.94c1.353 0 2.497-.467 3.43-1.4.933-.98 1.4-2.147 1.4-3.5V20.5c0-.047-4.9-.047-14.7 0-.56 0-1.05-.187-1.47-.56a2.1 2.1 0 0 1-.63-1.33Z" fill="#DEECDE"/><path d="M59.49 15.39 49.34 5.24C47.753 3.747 45.957 3 43.95 3H9.86c-1.867 0-3.477.677-4.83 2.03C3.677 6.43 3 8.087 3 10v58.94c0 1.913.677 3.547 2.03 4.9 1.353 1.353 2.963 2.03 4.83 2.03h45.01c1.913 0 3.547-.677 4.9-2.03 1.353-1.353 2.03-2.987 2.03-4.9V20.85c0-2.1-.77-3.92-2.31-5.46Z" fill="#DDECDE"/><path d="M3 68.94V10c0-1.913.677-3.57 2.03-4.97C6.383 3.677 7.993 3 9.86 3h34.09c2.007 0 3.803.747 5.39 2.24l10.15 10.15c1.54 1.54 2.31 3.36 2.31 5.46v48.09c0 1.913-.677 3.547-2.03 4.9-1.353 1.353-2.987 2.03-4.9 2.03H9.86c-1.867 0-3.477-.677-4.83-2.03C3.677 72.487 3 70.853 3 68.94Z" stroke="#3DA64E" stroke-width="4.2" stroke-linecap="round" stroke-linejoin="round"/><path d="M3.07 68.8V9.93c0-1.913.677-3.547 2.03-4.9C6.453 3.677 8.087 3 10 3h34.02c2.147 0 3.943.723 5.39 2.17l10.22 10.15c1.493 1.587 2.24 3.407 2.24 5.46V68.8c0 1.913-.677 3.57-2.03 4.97-1.353 1.353-2.987 2.03-4.9 2.03H10c-1.913 0-3.547-.677-4.9-2.03-1.353-1.4-2.03-3.057-2.03-4.97Z" stroke="#3DA74E" stroke-width="4.2" stroke-linecap="round" stroke-linejoin="round"/><path d="M42.97 18.61V5.1H10c-1.307 0-2.45.467-3.43 1.4-.933.98-1.4 2.123-1.4 3.43V68.8c0 1.353.467 2.52 1.4 3.5.933.933 2.077 1.4 3.43 1.4h44.94c1.353 0 2.497-.467 3.43-1.4.933-.98 1.4-2.147 1.4-3.5V20.5c0-.047-4.9-.047-14.7 0-.56 0-1.05-.187-1.47-.56a2.1 2.1 0 0 1-.63-1.33Z" fill="#DEECDE"/><path d="M59.49 15.39 49.34 5.24C47.753 3.747 45.957 3 43.95 3H9.86c-1.867 0-3.477.677-4.83 2.03C3.677 6.43 3 8.087 3 10v58.94c0 1.913.677 3.547 2.03 4.9 1.353 1.353 2.963 2.03 4.83 2.03h45.01c1.913 0 3.547-.677 4.9-2.03 1.353-1.353 2.03-2.987 2.03-4.9V20.85c0-2.1-.77-3.92-2.31-5.46Z" fill="#DDECDE"/><path d="M3 68.94V10c0-1.913.677-3.57 2.03-4.97C6.383 3.677 7.993 3 9.86 3h34.09c2.007 0 3.803.747 5.39 2.24l10.15 10.15c1.54 1.54 2.31 3.36 2.31 5.46v48.09c0 1.913-.677 3.547-2.03 4.9-1.353 1.353-2.987 2.03-4.9 2.03H9.86c-1.867 0-3.477-.677-4.83-2.03C3.677 72.487 3 70.853 3 68.94Z" stroke="#3DA64E" stroke-width="4.2" stroke-linecap="round" stroke-linejoin="round"/><path d="M3.07 68.8V9.93c0-1.913.677-3.547 2.03-4.9C6.453 3.677 8.087 3 10 3h34.02c2.147 0 3.943.723 5.39 2.17l10.22 10.15c1.493 1.587 2.24 3.407 2.24 5.46V68.8c0 1.913-.677 3.57-2.03 4.97-1.353 1.353-2.987 2.03-4.9 2.03H10c-1.913 0-3.547-.677-4.9-2.03-1.353-1.4-2.03-3.057-2.03-4.97Z" stroke="#3DA74E" stroke-width="4.2" stroke-linecap="round" stroke-linejoin="round"/><path d="M42.97 18.61V5.1H10c-1.307 0-2.45.467-3.43 1.4-.933.98-1.4 2.123-1.4 3.43V68.8c0 1.353.467 2.52 1.4 3.5.933.933 2.077 1.4 3.43 1.4h44.94c1.353 0 2.497-.467 3.43-1.4.933-.98 1.4-2.147 1.4-3.5V20.5c0-.047-4.9-.047-14.7 0-.56 0-1.05-.187-1.47-.56a2.1 2.1 0 0 1-.63-1.33Z" fill="#DEECDE"/><path d="M59.49 15.39 49.34 5.24C47.753 3.747 45.957 3 43.95 3H9.86c-1.867 0-3.477.677-4.83 2.03C3.677 6.43 3 8.087 3 10v58.94c0 1.913.677 3.547 2.03 4.9 1.353 1.353 2.963 2.03 4.83 2.03h45.01c1.913 0 3.547-.677 4.9-2.03 1.353-1.353 2.03-2.987 2.03-4.9V20.85c0-2.1-.77-3.92-2.31-5.46Z" fill="#DDECDE"/><path d="M3 68.94V10c0-1.913.677-3.57 2.03-4.97C6.383 3.677 7.993 3 9.86 3h34.09c2.007 0 3.803.747 5.39 2.24l10.15 10.15c1.54 1.54 2.31 3.36 2.31 5.46v48.09c0 1.913-.677 3.547-2.03 4.9-1.353 1.353-2.987 2.03-4.9 2.03H9.86c-1.867 0-3.477-.677-4.83-2.03C3.677 72.487 3 70.853 3 68.94Z" stroke="#3DA64E" stroke-width="4.2" stroke-linecap="round" stroke-linejoin="round"/><path d="M3.07 68.8V9.93c0-1.913.677-3.547 2.03-4.9C6.453 3.677 8.087 3 10 3h34.02c2.147 0 3.943.723 5.39 2.17l10.22 10.15c1.493 1.587 2.24 3.407 2.24 5.46V68.8c0 1.913-.677 3.57-2.03 4.97-1.353 1.353-2.987 2.03-4.9 2.03H10c-1.913 0-3.547-.677-4.9-2.03-1.353-1.4-2.03-3.057-2.03-4.97Z" stroke="#3DA74E" stroke-width="4.2" stroke-linecap="round" stroke-linejoin="round"/><path d="M42.97 18.61V5.1H10c-1.307 0-2.45.467-3.43 1.4-.933.98-1.4 2.123-1.4 3.43V68.8c0 1.353.467 2.52 1.4 3.5.933.933 2.077 1.4 3.43 1.4h44.94c1.353 0 2.497-.467 3.43-1.4.933-.98 1.4-2.147 1.4-3.5V20.5c0-.047-4.9-.047-14.7 0-.56 0-1.05-.187-1.47-.56a2.1 2.1 0 0 1-.63-1.33Z" fill="#DEECDE"/><path d="M59.49 15.39 49.34 5.24C47.753 3.747 45.957 3 43.95 3H9.86c-1.867 0-3.477.677-4.83 2.03C3.677 6.43 3 8.087 3 10v58.94c0 1.913.677 3.547 2.03 4.9 1.353 1.353 2.963 2.03 4.83 2.03h45.01c1.913 0 3.547-.677 4.9-2.03 1.353-1.353 2.03-2.987 2.03-4.9V20.85c0-2.1-.77-3.92-2.31-5.46Z" fill="#DDECDE"/><path d="M3 68.94V10c0-1.913.677-3.57 2.03-4.97C6.383 3.677 7.993 3 9.86 3h34.09c2.007 0 3.803.747 5.39 2.24l10.15 10.15c1.54 1.54 2.31 3.36 2.31 5.46v48.09c0 1.913-.677 3.547-2.03 4.9-1.353 1.353-2.987 2.03-4.9 2.03H9.86c-1.867 0-3.477-.677-4.83-2.03C3.677 72.487 3 70.853 3 68.94Z" stroke="#3DA64E" stroke-width="4.2" stroke-linecap="round" stroke-linejoin="round"/><path d="M3.07 68.8V9.93c0-1.913.677-3.547 2.03-4.9C6.453 3.677 8.087 3 10 3h34.02c2.147 0 3.943.723 5.39 2.17l10.22 10.15c1.493 1.587 2.24 3.407 2.24 5.46V68.8c0 1.913-.677 3.57-2.03 4.97-1.353 1.353-2.987 2.03-4.9 2.03H10c-1.913 0-3.547-.677-4.9-2.03-1.353-1.4-2.03-3.057-2.03-4.97Z" stroke="#3DA74E" stroke-width="4.2" stroke-linecap="round" stroke-linejoin="round"/><path d="M42.97 18.61V5.1H10c-1.307 0-2.45.467-3.43 1.4-.933.98-1.4 2.123-1.4 3.43V68.8c0 1.353.467 2.52 1.4 3.5.933.933 2.077 1.4 3.43 1.4h44.94c1.353 0 2.497-.467 3.43-1.4.933-.98 1.4-2.147 1.4-3.5V20.5c0-.047-4.9-.047-14.7 0-.56 0-1.05-.187-1.47-.56a2.1 2.1 0 0 1-.63-1.33Z" fill="#DEECDE"/><path d="M59.49 15.39 49.34 5.24C47.753 3.747 45.957 3 43.95 3H9.86c-1.867 0-3.477.677-4.83 2.03C3.677 6.43 3 8.087 3 10v58.94c0 1.913.677 3.547 2.03 4.9 1.353 1.353 2.963 2.03 4.83 2.03h45.01c1.913 0 3.547-.677 4.9-2.03 1.353-1.353 2.03-2.987 2.03-4.9V20.85c0-2.1-.77-3.92-2.31-5.46Z" fill="#DDECDE"/><path d="M3 68.94V10c0-1.913.677-3.57 2.03-4.97C6.383 3.677 7.993 3 9.86 3h34.09c2.007 0 3.803.747 5.39 2.24l10.15 10.15c1.54 1.54 2.31 3.36 2.31 5.46v48.09c0 1.913-.677 3.547-2.03 4.9-1.353 1.353-2.987 2.03-4.9 2.03H9.86c-1.867 0-3.477-.677-4.83-2.03C3.677 72.487 3 70.853 3 68.94Z" stroke="#3DA64E" stroke-width="4.2" stroke-linecap="round" stroke-linejoin="round"/><path d="M52.8 23.055c-.093-.653-.35-1.166-.77-1.54-.467-.373-.98-.536-1.54-.49H17.31c-.653-.093-1.19.07-1.61.49-.467.374-.7.887-.7 1.54v19.67c0 2.52.91 3.78 2.73 3.78h31.29c1.587 0 2.637-.396 3.15-1.19.42-.653.63-1.89.63-3.71v-18.55Zm-16.52 3.36h14.14v4.62H36.28v-4.62Zm0 6.65h14.14v4.55H36.28v-4.55Zm-2.17-6.65v4.62h-8.12v-4.62h8.12Zm16.31 16.8c0 .28-.117.537-.35.77-.187.234-.443.35-.77.35H36.21l.07-4.55h14.14v3.43Zm-16.31-3.43-.07 4.55h-8.05v-4.55h8.12Zm0-6.72v4.55h-8.12v-4.55h8.12Zm-16.94-6.65h6.72v4.62h-6.72v-4.62Zm0 6.65h6.72v4.55h-6.72v-4.55Zm6.72 6.72v4.55h-5.6c-.327 0-.583-.116-.77-.35-.233-.233-.35-.49-.35-.77v-3.43h6.72Z" fill="#3DA74E"/></svg>